<svg xmlns="http://www.w3.org/2000/svg" xmlns:xlink="http://www.w3.org/1999/xlink" fill="none" version="1.1" width="1302.74609375" height="1580.33203125" viewBox="0 0 1302.74609375 1580.33203125"><g transform="matrix(1,0.013508754782378674,-0.013508754782378674,1,5.362975648604333,-0.2127694838941352)"><ellipse cx="659.2484283447266" cy="995.4752807617188" rx="103.96626281738281" ry="91.03323364257812" fill-opacity="0" stroke-opacity="0.30000001192092896" stroke="#FFFFFF" fill="none" stroke-width="11"/><ellipse cx="659.2485656738281" cy="995.4752807617188" rx="380.1435241699219" ry="334.8174133300781" fill-opacity="0" stroke-opacity="1" stroke="#FFFFFF" fill="none" stroke-width="7"/><ellipse cx="659.2484588623047" cy="995.4752349853516" rx="460.89520263671875" ry="406.3830261230469" fill-opacity="0" stroke-opacity="1" stroke="#FFFFFF" fill="none" stroke-width="1"/><ellipse cx="659.2484683990479" cy="995.4752674102783" rx="611.3526000976562" ry="538.7100219726562" fill-opacity="0" stroke-opacity="0.5899999737739563" stroke="#FFFFFF" fill="none" stroke-width="7"/><ellipse cx="659.24853515625" cy="995.4752807617188" rx="642.498046875" ry="566.4710693359375" fill-opacity="0" stroke-opacity="1" stroke="#FFFFFF" fill="none" stroke-width="2"/><ellipse cx="659.2484893798828" cy="995.4752960205078" rx="223.59388732910156" ry="196.88172912597656" fill-opacity="0" stroke-opacity="0.6000000238418579" stroke="#FFFFFF" fill="none" stroke-width="5"/><ellipse cx="659.2485046386719" cy="995.4753112792969" rx="337.12933349609375" ry="297.12152099609375" fill-opacity="0" stroke-opacity="1" stroke="#FFFFFF" fill="none" stroke-width="3"/><ellipse cx="129.74765014648438" cy="696.7073974609375" rx="113.99716186523438" ry="100.52880859375" fill="#D8D8D8" fill-opacity="1"/><ellipse cx="544.718635559082" cy="672.7495746612549" rx="33.559913635253906" ry="29.594926834106445" fill="#D8D8D8" fill-opacity="1"/><ellipse cx="612.3711204528809" cy="443.0365562438965" rx="52.20431137084961" ry="46.036556243896484" fill="#D8D8D8" fill-opacity="1"/><ellipse cx="81.27222442626953" cy="1236.462459564209" rx="65.52173614501953" ry="57.780574798583984" fill="#D8D8D8" fill-opacity="1"/></g><g><path d="M385.62548828125,93.5L404.62548828125,235L361.62548828125,235L356.62548828125,196.5L296.62548828125,196.5L279.87548828125,235L239.12548828125,235L294.37548828125,100.5L287.12548828125,93.5L385.62548828125,93.5ZM330.37548828125,117.5L306.37548828125,172.5L354.37548828125,172.5L347.12548828125,117.5L330.37548828125,117.5ZM495.12548828125,93.5L473.37548828125,235L427.87548828125,235L444.62548828125,103L437.37548828125,93.5L495.12548828125,93.5ZM628.12548828125,86.5L624.62548828125,79.5L659.62548828125,79.5L653.87548828125,105.25L663.12548828125,105.25L666.62548828125,81.75L664.62548828125,72.25L705.62548828125,72.25L700.87548828125,105.25L734.62548828125,105.25L731.37548828125,129.25L697.37548828125,129.25L692.37548828125,165L726.37548828125,165L723.12548828125,189L688.87548828125,189L684.12548828125,223.75L722.87548828125,223.75L719.62548828125,247.75L600.87548828125,247.75L604.12548828125,223.75L646.62548828125,223.75L651.37548828125,189L613.62548828125,189L616.87548828125,165L654.87548828125,165L659.87548828125,129.25L648.37548828125,129.25L643.37548828125,152.5L613.87548828125,152.5L628.12548828125,86.5ZM552.12548828125,252L564.62548828125,238.25L571.37548828125,190.75L553.12548828125,190.75L542.12548828125,252L510.37548828125,252L539.62548828125,85L534.87548828125,76.75L619.62548828125,76.75L597.37548828125,235.5Q596.37548828125,242.5,591.25048828125,247.25Q586.12548828125,252,579.62548828125,252L552.12548828125,252ZM557.37548828125,167L574.62548828125,167L577.62548828125,145.5L561.37548828125,145.5L557.37548828125,167ZM565.62548828125,121.75L581.12548828125,121.75L584.12548828125,100.5L569.62548828125,100.5L565.62548828125,121.75ZM870.87548828125,98.25L837.12548828125,100.5L833.87548828125,124.5L871.87548828125,124.5L868.62548828125,148.25L830.37548828125,148.25L815.87548828125,252.25L777.87548828125,252.25L792.37548828125,148.25L754.62548828125,148.25L757.87548828125,124.5L795.87548828125,124.5L798.87548828125,103.25L762.87548828125,105.5L766.12548828125,81.75L874.12548828125,74.5L870.87548828125,98.25ZM964.12548828125,77L941.62548828125,235.75Q940.62548828125,243,935.12548828125,247.625Q929.62548828125,252.25,922.37548828125,252.25L880.12548828125,252.25L902.12548828125,229L922.62548828125,84.25L916.62548828125,77L964.12548828125,77ZM911.37548828125,96L893.37548828125,224.25L865.12548828125,224.25L883.12548828125,96L911.37548828125,96ZM741.12548828125,243.25L758.37548828125,155.25L786.87548828125,155.25L769.62548828125,243.25L741.12548828125,243.25ZM826.62548828125,243.25L834.37548828125,155.25L862.87548828125,155.25L855.12548828125,243.25L826.62548828125,243.25Z" fill="#B2EBF7" fill-opacity="1"/></g></svg>