<svg xmlns="http://www.w3.org/2000/svg" xmlns:xlink="http://www.w3.org/1999/xlink" fill="none" version="1.1" width="1920" height="1080" viewBox="0 0 1920 1080"><defs><clipPath id="master_svg0_2_3988"><rect x="0" y="0" width="1920" height="1080" rx="0"/></clipPath><radialGradient cx="0" cy="0" r="1" gradientUnits="userSpaceOnUse" id="master_svg1_2_36203" gradientTransform="translate(102.99951171875 975) rotate(142.72325756136215) scale(882.725476447281 882.725476447281)"><stop offset="0%" stop-color="#FFFFFF" stop-opacity="1"/><stop offset="100%" stop-color="#FFFFFF" stop-opacity="0"/></radialGradient><mask id="master_svg2_2_35012" style="mask-type:alpha" maskUnits="userSpaceOnUse" x="-754.00048828125" y="118" width="1714" height="1714"><ellipse cx="102.99951171875" cy="975" rx="857" ry="857" fill="url(#master_svg1_2_36203)" fill-opacity="1"/></mask><radialGradient cx="0" cy="0" r="1" gradientUnits="userSpaceOnUse" id="master_svg3_2_36572" gradientTransform="translate(1611.49951171875 219) rotate(114.32709847171219) scale(289.9031119203757 743.95666138507)"><stop offset="0%" stop-color="#323560" stop-opacity="1"/><stop offset="100%" stop-color="#323560" stop-opacity="0"/></radialGradient><linearGradient x1="0.5" y1="0" x2="-0.07298230726316841" y2="1.3954795725490998" id="master_svg4_2_23162"><stop offset="0%" stop-color="#102EB3" stop-opacity="1"/><stop offset="100.00001192092896%" stop-color="#4965D4" stop-opacity="1"/></linearGradient><filter id="master_svg5_2_3993" filterUnits="objectBoundingBox" color-interpolation-filters="sRGB" x="-0.0718562874251497" y="-0.2" width="1.2395209580838322" height="1.4"><feFlood flood-opacity="0" result="BackgroundImageFix"/><feColorMatrix in="SourceAlpha" type="matrix" values="0 0 0 0 0 0 0 0 0 0 0 0 0 0 0 0 0 0 127 0"/><feOffset dy="0" dx="8"/><feGaussianBlur stdDeviation="5"/><feColorMatrix type="matrix" values="0 0 0 0 0 0 0 0 0 0 0 0 0 0 0 0 0 0 0.30000001192092896 0"/><feBlend mode="normal" in2="BackgroundImageFix" result="effect1_dropShadow"/><feBlend mode="normal" in="SourceGraphic" in2="effect1_dropShadow" result="shape"/></filter><filter id="master_svg6_2_3994" filterUnits="objectBoundingBox" color-interpolation-filters="sRGB" x="-0.0718562874251497" y="-0.2" width="1.2395209580838322" height="1.4"><feFlood flood-opacity="0" result="BackgroundImageFix"/><feColorMatrix in="SourceAlpha" type="matrix" values="0 0 0 0 0 0 0 0 0 0 0 0 0 0 0 0 0 0 127 0"/><feOffset dy="0" dx="8"/><feGaussianBlur stdDeviation="5"/><feColorMatrix type="matrix" values="0 0 0 0 0 0 0 0 0 0 0 0 0 0 0 0 0 0 0.30000001192092896 0"/><feBlend mode="normal" in2="BackgroundImageFix" result="effect1_dropShadow"/><feBlend mode="normal" in="SourceGraphic" in2="effect1_dropShadow" result="shape"/></filter></defs><g clip-path="url(#master_svg0_2_3988)"><rect x="0" y="0" width="1920" height="1080" rx="0" fill="#FFFFFF" fill-opacity="1"/><rect x="0" y="0" width="1920" height="1080" rx="0" fill="#282A51" fill-opacity="1"/><g mask="url(#master_svg2_2_35012)"><ellipse cx="102.99953842163086" cy="972.082103729248" rx="113.28108215332031" ry="113.38636779785156" fill-opacity="0" stroke-opacity="0.30000001192092896" stroke="#7080D2" fill="none" stroke-width="11"/><ellipse cx="102.99949264526367" cy="972.0821495056152" rx="412.7888488769531" ry="413.1578674316406" fill-opacity="0" stroke-opacity="1" stroke="#7080D2" fill="none" stroke-width="7"/><ellipse cx="102.99953842163086" cy="972.0821342468262" rx="500.15673828125" ry="500.60052490234375" fill-opacity="0" stroke-opacity="1" stroke="#7080D2" fill="none" stroke-width="1"/><ellipse cx="102.99947929382324" cy="972.0821895599365" rx="663.6722412109375" ry="664.2637329101562" fill-opacity="0" stroke-opacity="0.5899999737739563" stroke="#7080D2" fill="none" stroke-width="7"/><ellipse cx="102.9995231628418" cy="972.082088470459" rx="697.2551879882812" ry="697.8740844726562" fill-opacity="0" stroke-opacity="1" stroke="#7080D2" fill="none" stroke-width="2"/><ellipse cx="102.9995231628418" cy="972.082103729248" rx="242.83291625976562" ry="243.0503387451172" fill-opacity="0" stroke-opacity="0.6000000238418579" stroke="#7080D2" fill="none" stroke-width="5"/><ellipse cx="102.99955368041992" cy="972.0821495056152" rx="365.9443359375" ry="366.27001953125" fill-opacity="0" stroke-opacity="1" stroke="#7080D2" fill="none" stroke-width="3"/><ellipse cx="103.15503311157227" cy="272.4096488952637" rx="118.78108215332031" ry="118.88636779785156" fill="#7080D2" fill-opacity="0.5686274766921997"/><ellipse cx="102.99951553344727" cy="1640.9567680358887" rx="118.78108215332031" ry="118.88636779785156" fill="#7080D2" fill-opacity="0.5686274766921997"/><ellipse cx="682.4735145568848" cy="1300.9639701843262" rx="118.78108215332031" ry="118.88636779785156" fill="#7080D2" fill-opacity="0.5686274766921997"/><ellipse cx="623.0829734802246" cy="579.2480506896973" rx="59.390541076660156" ry="59.390541076660156" fill="#7080D2" fill-opacity="0.5686274766921997"/><ellipse cx="-465.3735542297363" cy="638.7558708190918" rx="118.78108215332031" ry="118.88636779785156" fill="#7080D2" fill-opacity="0.5686274766921997"/><ellipse cx="-476.47458267211914" cy="1300.9639701843262" rx="118.78108215332031" ry="118.88636779785156" fill="#7080D2" fill-opacity="0.5686274766921997"/><ellipse cx="-234.4720058441162" cy="609.8675594329834" rx="29.97279930114746" ry="29.99936866760254" fill="#7080D2" fill-opacity="0.5686274766921997"/><ellipse cx="417.1587257385254" cy="813.1965713500977" rx="39.96372985839844" ry="39.9991569519043" fill="#7080D2" fill-opacity="0.5686274766921997"/><ellipse cx="-142.33335494995117" cy="1302.07515335083" rx="71.046630859375" ry="71.10961151123047" fill="#7080D2" fill-opacity="0.5686274766921997"/><ellipse cx="-661.861888885498" cy="1230.9655380249023" rx="35.5233154296875" ry="35.554805755615234" fill="#7080D2" fill-opacity="0.5686274766921997"/><ellipse cx="827.8971748352051" cy="744.3091354370117" rx="26.642486572265625" ry="26.66610336303711" fill="#7080D2" fill-opacity="0.5686274766921997"/></g><path d="M1223.99951171875,112.991837Q1255.85306171875,133.022446,1293.27325471875,143.191833Q1330.69344171875,153.361221,1373.68028171875,153.669388L1319.25090771875,212.2204Q1279.45155671875,213.76805,1278.04362471875,221.93451Q1274.96606871875,239.78537,1455.32432171875,289.26122Q1718.19345171875,361.37143,1899.41852171875,289.26122L1858.59649171875,370L1998.99951171875,370L1998.99951171875,68L1223.99951171875,68L1223.99951171875,112.991837Z" fill="url(#master_svg3_2_36572)" fill-opacity="1"/><rect x="0" y="0" width="1920" height="100" rx="0" fill="url(#master_svg4_2_23162)" fill-opacity="1"/><path d="M0,100L167,100L111,0L0,0L0,100Z" fill="#407ADC" fill-opacity="1" filter="url(#master_svg5_2_3993)"/><path d="M1920,100L2087,100L2031,0L1920,0L1920,100Z" fill="#407ADC" fill-opacity="1" transform="matrix(-1,0,0,1,3840,0)" filter="url(#master_svg6_2_3994)"/><ellipse cx="60.5" cy="50.5" rx="32.5" ry="32.5" fill="#F6DF68" fill-opacity="1"/><ellipse cx="1854.5" cy="50.5" rx="32.5" ry="32.5" fill="#F6DF68" fill-opacity="1"/></g></svg>