<svg xmlns="http://www.w3.org/2000/svg" xmlns:xlink="http://www.w3.org/1999/xlink" fill="none" version="1.1" width="1920" height="1080" viewBox="0 0 1920 1080"><defs><linearGradient x1="0.6477549076080322" y1="0" x2="0.2379265103778418" y2="0.8776173218903338" id="master_svg0_2_12115"><stop offset="0%" stop-color="#FFFFFF" stop-opacity="1"/><stop offset="99.99998807907104%" stop-color="#FFF7E8" stop-opacity="1"/></linearGradient><clipPath id="master_svg1_2_4145"><rect x="0" y="0" width="1920" height="1080" rx="0"/></clipPath><linearGradient x1="0.5" y1="0" x2="0.5" y2="1" id="master_svg2_2_19788"><stop offset="0%" stop-color="#5F7CFC" stop-opacity="1"/><stop offset="100%" stop-color="#2AAAE4" stop-opacity="0.20000000298023224"/></linearGradient><linearGradient x1="0.5" y1="0" x2="0.5" y2="1" id="master_svg3_2_18338"><stop offset="0%" stop-color="#001FAA" stop-opacity="1"/><stop offset="100%" stop-color="#001FAA" stop-opacity="0"/></linearGradient><radialGradient cx="0" cy="0" r="1" gradientUnits="userSpaceOnUse" id="master_svg4_2_7693" gradientTransform="translate(1252.54150390625 1118.7838745117188) rotate(90) scale(107 107)"><stop offset="0%" stop-color="#ECEDFF" stop-opacity="0"/><stop offset="100%" stop-color="#ECEDFF" stop-opacity="1"/></radialGradient><linearGradient x1="0.7392112016677856" y1="0.3771706819534302" x2="0.18763543665409088" y2="0.8482892513275146" id="master_svg5_2_06918"><stop offset="0%" stop-color="#FFFFFF" stop-opacity="1"/><stop offset="28.4297376871109%" stop-color="#FFFFFF" stop-opacity="0.8607373833656311"/><stop offset="99.99998807907104%" stop-color="#FFFFFF" stop-opacity="0"/></linearGradient><mask id="master_svg6_2_06225" style="mask-type:alpha" maskUnits="userSpaceOnUse" x="-403" y="-555" width="1430.99951171875" height="1467"><ellipse cx="315.99951171875" cy="200" rx="712" ry="712" fill="url(#master_svg5_2_06918)" fill-opacity="1"/></mask><linearGradient x1="-0.00546007975935936" y1="0.2929847240447998" x2="1.4058301448822024" y2="0.9999999999999996" id="master_svg7_2_07332"><stop offset="0%" stop-color="#B6E3FF" stop-opacity="1"/><stop offset="100%" stop-color="#B6E3FF" stop-opacity="0"/></linearGradient><radialGradient cx="0" cy="0" r="1" gradientUnits="userSpaceOnUse" id="master_svg8_2_7709" gradientTransform="translate(1339.718994140625 526.9407958984375) rotate(90) scale(49 49)"><stop offset="0%" stop-color="#F0F0FD" stop-opacity="0"/><stop offset="100%" stop-color="#F0F0FD" stop-opacity="1"/></radialGradient></defs><g clip-path="url(#master_svg1_2_4145)"><rect x="0" y="0" width="1920" height="1080" rx="0" fill="url(#master_svg0_2_12115)" fill-opacity="1"/><path d="M-41,1080L732,1080L1504.5,0L-41,0L-41,1080Z" fill="url(#master_svg2_2_19788)" fill-opacity="1"/><path d="M-149,1080L624,1080L1396.5,0L-149,0L-149,1080Z" fill="#4C68D5" fill-opacity="1"/><path d="M-305,1080L468,1080L1240.5,0L-305,0L-305,1080Z" fill="url(#master_svg3_2_18338)" fill-opacity="1"/><g transform="matrix(0.6121590733528137,-0.7907346487045288,0.7907346487045288,0.6121590733528137,-324.0144073987394,1143.8105640304748)"><ellipse cx="1607.9999923706055" cy="1506.2074508666992" rx="97.2472152709961" ry="97.2472152709961" fill-opacity="0" stroke-opacity="0.30000001192092896" stroke="#DEDEDE" fill="none" stroke-width="11"/><ellipse cx="1608.000015258789" cy="1506.2074737548828" rx="356.59539794921875" ry="356.59539794921875" fill-opacity="0" stroke-opacity="1" stroke="#DEDEDE" fill="none" stroke-width="7"/><ellipse cx="1607.999984741211" cy="1506.2074432373047" rx="432.57470703125" ry="432.57470703125" fill-opacity="0" stroke-opacity="1" stroke="#DEDEDE" fill="none" stroke-width="1"/><ellipse cx="1607.9999771118164" cy="1506.2074356079102" rx="573.6128540039062" ry="573.6128540039062" fill-opacity="0" stroke-opacity="0.5899999737739563" stroke="#FFFFFF" fill="none" stroke-width="7"/><ellipse cx="1608" cy="1506.2074584960938" rx="603" ry="603" fill-opacity="0" stroke-opacity="1" stroke="#DEDEDE" fill="none" stroke-width="2"/><ellipse cx="1608" cy="1506.2074584960938" rx="209.71621704101562" ry="209.71621704101562" fill-opacity="0" stroke-opacity="0.6000000238418579" stroke="#DEDEDE" fill="none" stroke-width="5"/><ellipse cx="1608" cy="1506.2074584960938" rx="316.3442077636719" ry="316.3442077636719" fill-opacity="0" stroke-opacity="1" stroke="#DEDEDE" fill="none" stroke-width="3"/></g><ellipse cx="1252.54150390625" cy="1118.7838745117188" rx="107" ry="107" fill="url(#master_svg4_2_7693)" fill-opacity="1" transform="matrix(0.6121590733528137,-0.7907346487045288,0.7907346487045288,0.6121590733528137,-355.7646881891196,1298.2305541250716)"/><ellipse cx="1501.232177734375" cy="706.2002563476562" rx="31.5" ry="31.5" fill="#E8E9FF" fill-opacity="1" transform="matrix(0.6121590733528137,-0.7907346487045288,0.7907346487045288,0.6121590733528137,36.51341955176758,1423.8445298815022)"/><g mask="url(#master_svg6_2_06225)"><g transform="matrix(-0.9904399514198303,-0.1379445493221283,0.1379445493221283,-0.9904399514198303,1467.8460107074643,1717.9036916443656)"><ellipse cx="1397.4514083862305" cy="1412.0883712768555" rx="97.2472152709961" ry="97.2472152709961" fill-opacity="0" stroke-opacity="0.30000001192092896" stroke="#FFFFFF" fill="none" stroke-width="11"/><ellipse cx="1397.451431274414" cy="1412.088394165039" rx="356.59539794921875" ry="356.59539794921875" fill-opacity="0" stroke-opacity="1" stroke="#FFFFFF" fill="none" stroke-width="7"/><ellipse cx="1397.451400756836" cy="1412.088363647461" rx="432.57470703125" ry="432.57470703125" fill-opacity="0" stroke-opacity="1" stroke="#FFFFFF" fill="none" stroke-width="1"/><ellipse cx="1397.4513931274414" cy="1412.0883560180664" rx="573.6128540039062" ry="573.6128540039062" fill-opacity="0" stroke-opacity="0.5899999737739563" stroke="#FFFFFF" fill="none" stroke-width="7"/><ellipse cx="1397.451416015625" cy="1412.08837890625" rx="603" ry="603" fill-opacity="0" stroke-opacity="1" stroke="#FFFFFF" fill="none" stroke-width="2"/><ellipse cx="1397.451416015625" cy="1412.08837890625" rx="209.71621704101562" ry="209.71621704101562" fill-opacity="0" stroke-opacity="0.6000000238418579" stroke="#FFFFFF" fill="none" stroke-width="5"/><ellipse cx="1397.451416015625" cy="1412.08837890625" rx="316.3442077636719" ry="316.3442077636719" fill-opacity="0" stroke-opacity="1" stroke="#FFFFFF" fill="none" stroke-width="3"/></g><ellipse cx="925.1434326171875" cy="737.7996826171875" rx="107" ry="107" fill="url(#master_svg7_2_07332)" fill-opacity="1" transform="matrix(-0.9904399514198303,-0.1379445493221283,0.1379445493221283,-0.9904399514198303,1541.4499963418384,1368.427316717436)"/><ellipse cx="395.98614501953125" cy="548.6334228515625" rx="31.5" ry="31.5" fill="#F2DADA" fill-opacity="1" transform="matrix(-0.9904399514198303,-0.1379445493221283,0.1379445493221283,-0.9904399514198303,654.1520478312086,1079.6019020671138)"/><ellipse cx="331.78448486328125" cy="819.2833251953125" rx="49" ry="49" fill="#FCE7C8" fill-opacity="1" transform="matrix(-0.9904399514198303,-0.1379445493221283,0.1379445493221283,-0.9904399514198303,456.6091501691335,1572.2112827010187)"/></g><ellipse cx="1339.718994140625" cy="526.9407958984375" rx="49" ry="49" fill="url(#master_svg8_2_7709)" fill-opacity="1" transform="matrix(0.6121590733528137,-0.7907346487045288,0.7907346487045288,0.6121590733528137,122.66930338231032,1205.9812315717936)"/><ellipse cx="965.1691284179688" cy="78.2269287109375" rx="61.5" ry="61.5" fill="#D8D8D8" fill-opacity="1" transform="matrix(-0.9904399514198303,-0.1379445493221283,0.1379445493221283,-0.9904399514198303,1796.3917474252885,157.95017782673858)"/><g><path d="M1101.84,740.020004L1102.5,735.180008L1097,729.020004L1135.940002,729.020004L1134.400002,740.020004L1163,740.020004L1160.36,758.720001L1131.760002,758.720001L1130.659996,766.64L1170.03999,766.64L1168.06,736.059998L1161.9,728.800003L1198.42,728.800003L1200.62,766.64L1238.67999,766.64L1235.81999,787.1L1201.94,787.1L1203.7,816.58L1234.72,795.23999L1230.53999,824.5L1205.46001,842.10001L1206.78,864.10001L1221.52,864.10001L1230.98,855.74001L1226.58,886.75999L1178.39999,886.75999L1176.6399999999999,862.12L1157.28,875.75999L1161.46,845.62L1174.88,836.38L1171.58,787.1L1056.96,787.1L1059.82,766.64L1097.880001,766.64L1098.98,758.720001L1066.639999,758.720001L1069.280001,740.020004L1101.84,740.020004ZM1097.66,800.52L1098.759998,792.16L1134.620003,792.16L1133.519997,800.52L1165.2,800.52L1162.34,820.10001L1105.139999,820.10001L1099.200001,830.22L1101.84,830.22L1097.220001,862.78L1114.599998,859.25999L1111.739998,880.38L1060.26,886.98L1063.559999,864.32001L1046.6199999,864.32001L1072.58,820.10001L1056.3,820.10001L1059.16,800.52L1097.66,800.52ZM1136.82,828.24001L1139.459999,835.94L1159.7,825.38L1156.18,850.4599900000001L1146.72,855.52L1158.16,886.98L1126.699997,886.98L1105.360001,828.24001L1136.82,828.24001ZM1239.78,756.740005L1208.53999,756.740005L1205.89999,734.080002L1237.58,734.080002L1239.78,756.740005ZM1289.5,886.98L1335.47998,824.72L1310.84,824.72L1313.9199800000001,803.82001L1343.17999,803.82001L1347.79999,770.38L1322.72,770.38L1325.57999,749.479996L1350.66,749.479996L1352.4199800000001,736.940002L1345.38,728.580002L1395.53998,728.580002L1392.45999,749.479996L1442.62,749.479996L1435.14001,803.82001L1443.5,803.82001L1440.4199800000001,824.72L1385.85999,824.72L1431.62,886.98L1385.64001,886.98L1360.56,853.10001L1335.47998,886.98L1289.5,886.98ZM1247.7,886.98L1271.23999,808L1308.85999,808L1285.31999,886.98L1247.7,886.98ZM1272.56,799.64L1268.81999,736.940002L1306.44,736.940002L1310.17999,799.64L1272.56,799.64ZM1389.59998,770.38L1384.97998,803.82001L1401.70001,803.82001L1406.32001,770.38L1389.59998,770.38ZM1560.53998,834.17999L1561.64001,827.36L1590.02002,814.16L1526.88,814.16L1528.85999,798.10001L1639.73999,798.10001L1637.53998,815.26001L1596.40002,834.17999L1634.67999,834.17999L1632.03998,853.32001L1592.88,853.32001L1590.02002,873.12Q1589.14001,879.28,1584.84998,883.02Q1580.56,886.75999,1574.39996,886.75999L1538.09998,886.75999L1555.9199800000001,868.5L1557.89996,853.32001L1521.15997,853.32001L1523.79999,834.17999L1560.53998,834.17999ZM1639.9599600000001,793.26001L1607.83997,793.26001L1609.38,783.14L1562.9599600000001,783.14L1561.4199800000001,793.26001L1529.07999,793.26001L1533.03998,765.76L1570.21997,765.76L1571.32001,757.400002L1536.56,757.400002L1538.97998,739.8000030000001L1573.73999,739.8000030000001L1575.27997,728.800003L1610.26001,728.800003L1608.71997,739.8000030000001L1645.90002,739.8000030000001L1643.47998,757.400002L1606.29999,757.400002L1605.19995,765.76L1643.9199800000001,765.76L1639.9599600000001,793.26001ZM1486.62,736.720001L1481.78,728.580002L1516.53998,728.580002L1494.09998,886.75999L1465.5,886.75999L1486.62,736.720001ZM1450.09998,843.64L1465.5,759.8199999999999L1480.45999,759.8199999999999L1466.15997,843.64L1450.09998,843.64ZM1509.28,803.82001L1515.21997,759.8199999999999L1529.73999,759.8199999999999L1524.45999,803.82001L1509.28,803.82001ZM1834.43994,833.08L1758.09998,840.78L1755.23993,862.34L1826.2999300000001,862.34L1835.7599500000001,853.98L1831.57996,883.24001L1714.5399200000002,883.24001L1726.8599199999999,795.4599900000001L1764.47998,795.4599900000001L1761.6199299999998,815.48001L1837.9599600000001,808L1834.43994,833.08ZM1740.93994,738.6999969999999L1735.6599700000002,732.759995L1831.7999300000001,732.759995L1845.21997,787.1L1803.41992,787.1L1795.27997,753.660004L1774.81995,753.660004L1757.43994,787.1L1715.63995,787.1L1740.93994,738.6999969999999ZM1655.57996,886.98L1668.9999400000002,791.28L1660.63995,791.28L1663.4999400000002,770.38L1709.47998,770.38L1697.37994,857.06L1710.3599199999999,853.98L1707.4999400000002,874.88L1655.57996,886.98ZM1702.43994,732.759995L1710.7999300000001,762.020004L1677.3599199999999,762.020004L1669.21997,732.759995L1702.43994,732.759995Z" fill="#10417A" fill-opacity="1"/></g><g><path d="M1057.7919998,918.120003L1056.4239998,916.032001L1071.615999,916.032001L1070.679998,922.296001L1079.247999,922.296001L1077.807999,929.208L1069.816,929.208L1067.439999,945.768002L1074.351999,945.768002L1072.983999,952.6800000000001L1057.7919998,952.6800000000001Q1055.7039995,952.6800000000001,1054.4079995,951.311996Q1053.112,949.944,1053.6159997,947.855999L1056.4239998,929.208L1050.8799999,929.208L1051.5999999,922.296001L1057.2159996,922.296001L1057.7919998,918.120003ZM1103.584,907.752003L1101.568001,922.296001L1123.671997,922.296001L1119.496002,952.6800000000001L1105.671997,952.6800000000001L1109.127998,929.208L1100.848,929.208L1097.391998,952.6800000000001L1083.568001,952.6800000000001L1089.759998,909.84L1088.391998,907.752003L1103.584,907.752003ZM1166.08,940.223999L1143.975998,940.223999L1143.255997,945.768002L1162.624,945.768002L1166.08,943.032001L1163.992,952.6800000000001L1133.608002,952.6800000000001Q1131.520004,952.6800000000001,1130.475998,951.311996Q1129.431999,949.944,1129.431999,947.855999L1132.888,922.296001L1168.816,922.296001L1166.08,940.223999ZM1145.992004,929.208L1145.344002,933.312L1153.624,933.312L1154.344,929.208L1145.992004,929.208ZM1243.26399,922.296001L1256.44,922.296001L1239.808,952.6800000000001L1225.98399,952.6800000000001L1218.424,925.032001L1216.336,922.296001L1230.87999,922.296001L1234.98399,939.576L1243.26399,922.296001ZM1297.40799,940.223999L1275.3039899999999,940.223999L1274.5839799999999,945.768002L1293.952,945.768002L1297.40799,943.032001L1295.31999,952.6800000000001L1264.93599,952.6800000000001Q1262.84799,952.6800000000001,1261.8039899999999,951.311996Q1260.75999,949.944,1260.75999,947.855999L1264.21599,922.296001L1300.14398,922.296001L1297.40799,940.223999ZM1277.31999,929.208L1276.672,933.312L1284.952,933.312L1285.67198,929.208L1277.31999,929.208ZM1322.46399,922.296001L1321.09598,931.944L1330.81598,922.296001L1344.63998,922.296001L1321.09598,943.032001L1319.728,952.6800000000001L1305.90399,952.6800000000001L1309.93597,924.312L1308.49597,922.296001L1322.46399,922.296001ZM1374.08798,907.752003L1387.91199,907.752003L1381.72,952.6800000000001L1350.616,952.6800000000001Q1348.52798,952.6800000000001,1347.4840100000001,951.311996Q1346.44,949.944,1346.44,947.855999L1349.896,922.296001L1372,922.296001L1374.08798,907.752003ZM1362.63998,929.208L1359.97598,945.768002L1368.76001,945.768002L1371.3519900000001,929.208L1362.63998,929.208ZM1411.23999,920.208L1398.064,920.208L1398.784,911.928001L1412.60797,911.928001L1411.23999,920.208ZM1411.23999,922.296001L1407.064,952.6800000000001L1393.23999,952.6800000000001L1397.41599,924.312L1395.32797,922.296001L1411.23999,922.296001ZM1457.75198,929.208L1435.64798,929.208L1432.91199,945.768002L1452.2079800000001,945.768002L1455.66397,943.032001L1454.29596,952.6800000000001L1418.36798,952.6800000000001L1423.19199,922.296001L1458.47198,922.296001L1457.75198,929.208ZM1471.14398,918.120003L1469.776,916.032001L1484.96799,916.032001L1484.03198,922.296001L1492.59998,922.296001L1491.15997,929.208L1483.1680000000001,929.208L1480.79199,945.768002L1487.70398,945.768002L1486.336,952.6800000000001L1471.14398,952.6800000000001Q1469.056,952.6800000000001,1467.75998,951.311996Q1466.46399,949.944,1466.96799,947.855999L1469.776,929.208L1464.23199,929.208L1464.952,922.296001L1470.56799,922.296001L1471.14398,918.120003ZM1582.52802,922.296001L1579.07196,947.855999Q1578.92798,948.936001,1578.3519900000001,949.8000030000001Q1577.7759999999998,950.664001,1576.9479999999999,951.311996Q1576.12,951.959999,1575.21997,952.3199999999999Q1574.32001,952.6800000000001,1573.52802,952.6800000000001L1556.31998,952.6800000000001L1553.944,967.8000030000001L1540.12,967.8000030000001L1546.52798,924.384003L1544.51199,922.296001L1582.52802,922.296001ZM1559.70398,929.208L1557.112,946.4159999999999L1565.46399,946.4159999999999L1567.9840100000001,929.208L1559.70398,929.208ZM1612.19196,929.208L1604.84796,929.208L1604.19995,931.944L1590.37598,931.944L1592.46399,922.296001L1626.30396,922.296001L1622.12793,949.223999L1624.93597,952.6800000000001L1592.46399,952.6800000000001Q1590.37598,952.6800000000001,1589.33197,951.311996Q1588.28796,949.944,1588.28796,947.855999L1590.37598,934.68L1611.11194,934.68L1612.19196,929.208ZM1602.83197,941.592003L1602.11194,945.768002L1609.0239900000001,945.768002L1609.74396,941.592003L1602.83197,941.592003ZM1648.26398,922.296001L1646.896,931.944L1656.6159699999998,922.296001L1670.43994,922.296001L1646.896,943.032001L1645.5279500000001,952.6800000000001L1631.70398,952.6800000000001L1635.73596,924.312L1634.29596,922.296001L1648.26398,922.296001ZM1696.14398,929.208L1688.79999,929.208L1688.15198,931.944L1674.328,931.944L1676.4160200000001,922.296001L1710.25598,922.296001L1706.07996,949.223999L1708.888,952.6800000000001L1676.4160200000001,952.6800000000001Q1674.328,952.6800000000001,1673.284,951.311996Q1672.23999,949.944,1672.23999,947.855999L1674.328,934.68L1695.06396,934.68L1696.14398,929.208ZM1686.784,941.592003L1686.06396,945.768002L1692.9760099999999,945.768002L1693.69598,941.592003L1686.784,941.592003ZM1743.30402,907.752003L1757.12799,907.752003L1750.93597,952.6800000000001L1719.83203,952.6800000000001Q1717.74402,952.6800000000001,1716.70001,951.311996Q1715.6560100000002,949.944,1715.6560100000002,947.855999L1719.112,922.296001L1741.216,922.296001L1743.30402,907.752003ZM1731.85602,929.208L1729.19202,945.768002L1737.9760099999999,945.768002L1740.56799,929.208L1731.85602,929.208ZM1797.0159899999999,922.296001Q1799.104,922.296001,1800.1480099999999,923.988003Q1801.19202,925.68,1801.19202,927.768002L1797.73596,952.6800000000001L1766.6319600000002,952.6800000000001Q1764.54401,952.6800000000001,1763.5,951.311996Q1762.45599,949.944,1762.45599,947.855999L1765.91199,922.296001L1797.0159899999999,922.296001ZM1779.0159899999999,929.208L1776.27997,945.768002L1784.56,945.768002L1787.36798,929.208L1779.0159899999999,929.208ZM1808.96796,922.296001L1823.51196,922.296001L1826.53595,928.704002L1830.4239499999999,923.664001L1829.70398,922.296001L1844.8959399999999,922.296001L1832.2239399999999,937.487999L1840.7919299999999,952.6800000000001L1826.96796,952.6800000000001L1823.94397,946.992001L1818.6159699999998,952.6800000000001L1805.51196,952.6800000000001L1818.1839599999998,937.487999L1811.05597,925.032001L1808.96796,922.296001Z" fill="#10417A" fill-opacity="1"/></g></g></svg>