<svg xmlns="http://www.w3.org/2000/svg" xmlns:xlink="http://www.w3.org/1999/xlink" fill="none" version="1.1" width="1920" height="1080" viewBox="0 0 1920 1080"><defs><clipPath id="master_svg0_2_0178"><rect x="0" y="0" width="1920" height="1080" rx="0"/></clipPath></defs><g clip-path="url(#master_svg0_2_0178)"><rect x="0" y="0" width="1920" height="1080" rx="0" fill="#FFFFFF" fill-opacity="1"/><path d="M841,1080L1614,1080L2386.5,0L841,0L841,1080Z" fill="#D8D8D8" fill-opacity="1"/><path d="M665,1080L1438,1080L2210.5,0L665,0L665,1080Z" fill="#C4C4C4" fill-opacity="1"/><path d="M-1.5,1080L1227.5,1080L2000,0L-1.5,0L-1.5,1080Z" fill="#B0B0B0" fill-opacity="1"/><g><path d="M1092.84,775.020004L1093.5,770.180008L1088,764.020004L1126.940002,764.020004L1125.400002,775.020004L1154,775.020004L1151.36,793.720001L1122.760002,793.720001L1121.659996,801.64L1161.03999,801.64L1159.06,771.059998L1152.9,763.800003L1189.42,763.800003L1191.62,801.64L1229.67999,801.64L1226.81999,822.1L1192.94,822.1L1194.7,851.58L1225.72,830.23999L1221.53999,859.5L1196.46001,877.10001L1197.78,899.10001L1212.52,899.10001L1221.98,890.74001L1217.58,921.75999L1169.39999,921.75999L1167.6399999999999,897.12L1148.28,910.75999L1152.46,880.62L1165.88,871.38L1162.58,822.1L1047.96,822.1L1050.82,801.64L1088.880001,801.64L1089.98,793.720001L1057.639999,793.720001L1060.280001,775.020004L1092.84,775.020004ZM1088.66,835.52L1089.759998,827.16L1125.620003,827.16L1124.519997,835.52L1156.2,835.52L1153.34,855.10001L1096.139999,855.10001L1090.200001,865.22L1092.84,865.22L1088.220001,897.78L1105.599998,894.25999L1102.739998,915.38L1051.26,921.98L1054.559999,899.32001L1037.6199999,899.32001L1063.58,855.10001L1047.3,855.10001L1050.16,835.52L1088.66,835.52ZM1127.82,863.24001L1130.459999,870.94L1150.7,860.38L1147.18,885.4599900000001L1137.72,890.52L1149.16,921.98L1117.699997,921.98L1096.360001,863.24001L1127.82,863.24001ZM1230.78,791.740005L1199.53999,791.740005L1196.89999,769.080002L1228.58,769.080002L1230.78,791.740005ZM1280.5,921.98L1326.47998,859.72L1301.84,859.72L1304.9199800000001,838.82001L1334.17999,838.82001L1338.79999,805.38L1313.72,805.38L1316.57999,784.479996L1341.66,784.479996L1343.4199800000001,771.940002L1336.38,763.580002L1386.53998,763.580002L1383.45999,784.479996L1433.62,784.479996L1426.14001,838.82001L1434.5,838.82001L1431.4199800000001,859.72L1376.85999,859.72L1422.62,921.98L1376.64001,921.98L1351.56,888.10001L1326.47998,921.98L1280.5,921.98ZM1238.7,921.98L1262.23999,843L1299.85999,843L1276.31999,921.98L1238.7,921.98ZM1263.56,834.64L1259.81999,771.940002L1297.44,771.940002L1301.17999,834.64L1263.56,834.64ZM1380.59998,805.38L1375.97998,838.82001L1392.70001,838.82001L1397.32001,805.38L1380.59998,805.38ZM1551.53998,869.17999L1552.64001,862.36L1581.02002,849.16L1517.88,849.16L1519.85999,833.10001L1630.73999,833.10001L1628.53998,850.26001L1587.40002,869.17999L1625.67999,869.17999L1623.03998,888.32001L1583.88,888.32001L1581.02002,908.12Q1580.14001,914.28,1575.84998,918.02Q1571.56,921.75999,1565.39996,921.75999L1529.09998,921.75999L1546.9199800000001,903.5L1548.89996,888.32001L1512.15997,888.32001L1514.79999,869.17999L1551.53998,869.17999ZM1630.9599600000001,828.26001L1598.83997,828.26001L1600.38,818.14L1553.9599600000001,818.14L1552.4199800000001,828.26001L1520.07999,828.26001L1524.03998,800.76L1561.21997,800.76L1562.32001,792.400002L1527.56,792.400002L1529.97998,774.8000030000001L1564.73999,774.8000030000001L1566.27997,763.800003L1601.26001,763.800003L1599.71997,774.8000030000001L1636.90002,774.8000030000001L1634.47998,792.400002L1597.29999,792.400002L1596.19995,800.76L1634.9199800000001,800.76L1630.9599600000001,828.26001ZM1477.62,771.720001L1472.78,763.580002L1507.53998,763.580002L1485.09998,921.75999L1456.5,921.75999L1477.62,771.720001ZM1441.09998,878.64L1456.5,794.8199999999999L1471.45999,794.8199999999999L1457.15997,878.64L1441.09998,878.64ZM1500.28,838.82001L1506.21997,794.8199999999999L1520.73999,794.8199999999999L1515.45999,838.82001L1500.28,838.82001ZM1825.43994,868.08L1749.09998,875.78L1746.23993,897.34L1817.2999300000001,897.34L1826.7599500000001,888.98L1822.57996,918.24001L1705.5399200000002,918.24001L1717.8599199999999,830.4599900000001L1755.47998,830.4599900000001L1752.6199299999998,850.48001L1828.9599600000001,843L1825.43994,868.08ZM1731.93994,773.6999969999999L1726.6599700000002,767.759995L1822.7999300000001,767.759995L1836.21997,822.1L1794.41992,822.1L1786.27997,788.660004L1765.81995,788.660004L1748.43994,822.1L1706.63995,822.1L1731.93994,773.6999969999999ZM1646.57996,921.98L1659.9999400000002,826.28L1651.63995,826.28L1654.4999400000002,805.38L1700.47998,805.38L1688.37994,892.06L1701.3599199999999,888.98L1698.4999400000002,909.88L1646.57996,921.98ZM1693.43994,767.759995L1701.7999300000001,797.020004L1668.3599199999999,797.020004L1660.21997,767.759995L1693.43994,767.759995Z" fill="#3D3D3D" fill-opacity="0"/></g><g><path d="M1048.7919998,953.120003L1047.4239998,951.032001L1062.615999,951.032001L1061.679998,957.296001L1070.247999,957.296001L1068.807999,964.208L1060.816,964.208L1058.439999,980.768002L1065.351999,980.768002L1063.983999,987.6800000000001L1048.7919998,987.6800000000001Q1046.7039995,987.6800000000001,1045.4079995,986.311996Q1044.112,984.944,1044.6159997,982.855999L1047.4239998,964.208L1041.8799999,964.208L1042.5999999,957.296001L1048.2159996,957.296001L1048.7919998,953.120003ZM1094.584,942.752003L1092.568001,957.296001L1114.671997,957.296001L1110.496002,987.6800000000001L1096.671997,987.6800000000001L1100.127998,964.208L1091.848,964.208L1088.391998,987.6800000000001L1074.568001,987.6800000000001L1080.759998,944.84L1079.391998,942.752003L1094.584,942.752003ZM1157.08,975.223999L1134.975998,975.223999L1134.255997,980.768002L1153.624,980.768002L1157.08,978.032001L1154.992,987.6800000000001L1124.608002,987.6800000000001Q1122.520004,987.6800000000001,1121.475998,986.311996Q1120.431999,984.944,1120.431999,982.855999L1123.888,957.296001L1159.816,957.296001L1157.08,975.223999ZM1136.992004,964.208L1136.344002,968.312L1144.624,968.312L1145.344,964.208L1136.992004,964.208ZM1234.26399,957.296001L1247.44,957.296001L1230.808,987.6800000000001L1216.98399,987.6800000000001L1209.424,960.032001L1207.336,957.296001L1221.87999,957.296001L1225.98399,974.576L1234.26399,957.296001ZM1288.40799,975.223999L1266.3039899999999,975.223999L1265.5839799999999,980.768002L1284.952,980.768002L1288.40799,978.032001L1286.31999,987.6800000000001L1255.93599,987.6800000000001Q1253.84799,987.6800000000001,1252.8039899999999,986.311996Q1251.75999,984.944,1251.75999,982.855999L1255.21599,957.296001L1291.14398,957.296001L1288.40799,975.223999ZM1268.31999,964.208L1267.672,968.312L1275.952,968.312L1276.67198,964.208L1268.31999,964.208ZM1313.46399,957.296001L1312.09598,966.944L1321.81598,957.296001L1335.63998,957.296001L1312.09598,978.032001L1310.728,987.6800000000001L1296.90399,987.6800000000001L1300.93597,959.312L1299.49597,957.296001L1313.46399,957.296001ZM1365.08798,942.752003L1378.91199,942.752003L1372.72,987.6800000000001L1341.616,987.6800000000001Q1339.52798,987.6800000000001,1338.4840100000001,986.311996Q1337.44,984.944,1337.44,982.855999L1340.896,957.296001L1363,957.296001L1365.08798,942.752003ZM1353.63998,964.208L1350.97598,980.768002L1359.76001,980.768002L1362.3519900000001,964.208L1353.63998,964.208ZM1402.23999,955.208L1389.064,955.208L1389.784,946.928001L1403.60797,946.928001L1402.23999,955.208ZM1402.23999,957.296001L1398.064,987.6800000000001L1384.23999,987.6800000000001L1388.41599,959.312L1386.32797,957.296001L1402.23999,957.296001ZM1448.75198,964.208L1426.64798,964.208L1423.91199,980.768002L1443.2079800000001,980.768002L1446.66397,978.032001L1445.29596,987.6800000000001L1409.36798,987.6800000000001L1414.19199,957.296001L1449.47198,957.296001L1448.75198,964.208ZM1462.14398,953.120003L1460.776,951.032001L1475.96799,951.032001L1475.03198,957.296001L1483.59998,957.296001L1482.15997,964.208L1474.1680000000001,964.208L1471.79199,980.768002L1478.70398,980.768002L1477.336,987.6800000000001L1462.14398,987.6800000000001Q1460.056,987.6800000000001,1458.75998,986.311996Q1457.46399,984.944,1457.96799,982.855999L1460.776,964.208L1455.23199,964.208L1455.952,957.296001L1461.56799,957.296001L1462.14398,953.120003ZM1573.52802,957.296001L1570.07196,982.855999Q1569.92798,983.936001,1569.3519900000001,984.8000030000001Q1568.7759999999998,985.664001,1567.9479999999999,986.311996Q1567.12,986.959999,1566.21997,987.3199999999999Q1565.32001,987.6800000000001,1564.52802,987.6800000000001L1547.31998,987.6800000000001L1544.944,1002.8000030000001L1531.12,1002.8000030000001L1537.52798,959.384003L1535.51199,957.296001L1573.52802,957.296001ZM1550.70398,964.208L1548.112,981.4159999999999L1556.46399,981.4159999999999L1558.9840100000001,964.208L1550.70398,964.208ZM1603.19196,964.208L1595.84796,964.208L1595.19995,966.944L1581.37598,966.944L1583.46399,957.296001L1617.30396,957.296001L1613.12793,984.223999L1615.93597,987.6800000000001L1583.46399,987.6800000000001Q1581.37598,987.6800000000001,1580.33197,986.311996Q1579.28796,984.944,1579.28796,982.855999L1581.37598,969.68L1602.11194,969.68L1603.19196,964.208ZM1593.83197,976.592003L1593.11194,980.768002L1600.0239900000001,980.768002L1600.74396,976.592003L1593.83197,976.592003ZM1639.26398,957.296001L1637.896,966.944L1647.6159699999998,957.296001L1661.43994,957.296001L1637.896,978.032001L1636.5279500000001,987.6800000000001L1622.70398,987.6800000000001L1626.73596,959.312L1625.29596,957.296001L1639.26398,957.296001ZM1687.14398,964.208L1679.79999,964.208L1679.15198,966.944L1665.328,966.944L1667.4160200000001,957.296001L1701.25598,957.296001L1697.07996,984.223999L1699.888,987.6800000000001L1667.4160200000001,987.6800000000001Q1665.328,987.6800000000001,1664.284,986.311996Q1663.23999,984.944,1663.23999,982.855999L1665.328,969.68L1686.06396,969.68L1687.14398,964.208ZM1677.784,976.592003L1677.06396,980.768002L1683.9760099999999,980.768002L1684.69598,976.592003L1677.784,976.592003ZM1734.30402,942.752003L1748.12799,942.752003L1741.93597,987.6800000000001L1710.83203,987.6800000000001Q1708.74402,987.6800000000001,1707.70001,986.311996Q1706.6560100000002,984.944,1706.6560100000002,982.855999L1710.112,957.296001L1732.216,957.296001L1734.30402,942.752003ZM1722.85602,964.208L1720.19202,980.768002L1728.9760099999999,980.768002L1731.56799,964.208L1722.85602,964.208ZM1788.0159899999999,957.296001Q1790.104,957.296001,1791.1480099999999,958.988003Q1792.19202,960.68,1792.19202,962.768002L1788.73596,987.6800000000001L1757.6319600000002,987.6800000000001Q1755.54401,987.6800000000001,1754.5,986.311996Q1753.45599,984.944,1753.45599,982.855999L1756.91199,957.296001L1788.0159899999999,957.296001ZM1770.0159899999999,964.208L1767.27997,980.768002L1775.56,980.768002L1778.36798,964.208L1770.0159899999999,964.208ZM1799.96796,957.296001L1814.51196,957.296001L1817.53595,963.704002L1821.4239499999999,958.664001L1820.70398,957.296001L1835.8959399999999,957.296001L1823.2239399999999,972.487999L1831.7919299999999,987.6800000000001L1817.96796,987.6800000000001L1814.94397,981.992001L1809.6159699999998,987.6800000000001L1796.51196,987.6800000000001L1809.1839599999998,972.487999L1802.05597,960.032001L1799.96796,957.296001Z" fill="#3D3D3D" fill-opacity="0"/></g><g style="opacity:0.699999988079071;"><g transform="matrix(-0.9904399514198303,-0.1379445493221283,0.1379445493221283,-0.9904399514198303,2920.0199959205056,1888.5445000478576)"><ellipse cx="2129.4514083862305" cy="1447.0883712768555" rx="97.2472152709961" ry="97.2472152709961" fill-opacity="0" stroke-opacity="0.30000001192092896" stroke="#FFFFFF" fill="none" stroke-width="11"/><ellipse cx="2129.451431274414" cy="1447.088394165039" rx="356.59539794921875" ry="356.59539794921875" fill-opacity="0" stroke-opacity="1" stroke="#FFFFFF" fill="none" stroke-width="7"/><ellipse cx="2129.451400756836" cy="1447.088363647461" rx="432.57470703125" ry="432.57470703125" fill-opacity="0" stroke-opacity="1" stroke="#FFFFFF" fill="none" stroke-width="1"/><ellipse cx="2129.4513931274414" cy="1447.0883560180664" rx="573.6128540039062" ry="573.6128540039062" fill-opacity="0" stroke-opacity="0.5899999737739563" stroke="#FFFFFF" fill="none" stroke-width="7"/><ellipse cx="2129.451416015625" cy="1447.08837890625" rx="603" ry="603" fill-opacity="0" stroke-opacity="1" stroke="#FFFFFF" fill="none" stroke-width="2"/><ellipse cx="2129.451416015625" cy="1447.08837890625" rx="209.71621704101562" ry="209.71621704101562" fill-opacity="0" stroke-opacity="0.6000000238418579" stroke="#FFFFFF" fill="none" stroke-width="5"/><ellipse cx="2129.451416015625" cy="1447.08837890625" rx="316.3442077636719" ry="316.3442077636719" fill-opacity="0" stroke-opacity="1" stroke="#FFFFFF" fill="none" stroke-width="3"/></g><ellipse cx="1657.1434326171875" cy="772.7996826171875" rx="107" ry="107" fill="#D8D8D8" fill-opacity="1" transform="matrix(-0.9904399514198303,-0.1379445493221283,0.1379445493221283,-0.9904399514198303,2993.6239815548797,1539.068125120928)"/><ellipse cx="1127.9861450195312" cy="583.6334228515625" rx="31.5" ry="31.5" fill="#D8D8D8" fill-opacity="1" transform="matrix(-0.9904399514198303,-0.1379445493221283,0.1379445493221283,-0.9904399514198303,2106.32603304425,1250.2427104706057)"/><ellipse cx="1063.7844848632812" cy="854.2833251953125" rx="49" ry="49" fill="#D8D8D8" fill-opacity="1" transform="matrix(-0.9904399514198303,-0.1379445493221283,0.1379445493221283,-0.9904399514198303,1908.7831353821748,1742.8520911045107)"/></g><path d="M229,967L1102,967L1102,330.00002C1102,265.934975,1050.06506,214,986,214L229,214L229,967Z" fill="#D8D8D8" fill-opacity="1"/><path d="M475,312L824,312L845.5731499999999,178.451969C850.77887,146.226048,825.89508,117,793.2514,117L506.5,117L475,312Z" fill="#E6E6E6" fill-opacity="1"/><path d="M495,295L844,295L865.5731499999999,161.451969C870.77887,129.226048,845.89508,100,813.2514,100L526.5,100L495,295ZM841.44574,292L498.5235045,292L529.054276,103L813.2514,103.0000038Q836.34836,103.0000019,851.32159,120.5861Q866.29483,138.172188,862.61154,160.973557L841.44574,292Z" fill-rule="evenodd" fill="#000000" fill-opacity="1"/><g><path d="M581.605003,185.782997L593.188004,172.483994L562.872001,172.483994L564.445002,161.186996L620.072006,161.186996L600.052002,185.782997L638.090004,185.782997L621.359001,161.472992L645.955002,161.472992L649.53001,166.763992L671.552,158.46999399999999L669.83601,171.33999599999999L656.394,176.34499399999999L658.539,179.348L676.843,172.626999L675.12701,184.066994L664.54501,187.927994L674.69801,202.22799700000002L649.53001,202.22799700000002L646.241005,197.651993L646.098007,199.082001L590.614002,199.082001L590.757004,197.365997L586.896004,202.22799700000002L556.151,202.22799700000002L557.7240009,191.360001L568.592001,191.360001L561.871,178.060997L577.601002,178.060997L581.605003,185.782997ZM666.40401,205.659996L662.2570000000001,234.975L559.011001,234.975L563.158001,205.659996L666.40401,205.659996ZM568.735001,248.274L564.302,237.978L592.759003,237.978L597.192001,248.274L621.645004,248.274L627.937004,237.978L656.394,237.978L650.1020100000001,248.274L665.83201,248.274L664.116,261.00101L550.5740001,261.00101L552.29,248.274L568.735001,248.274ZM636.660004,224.536L637.804001,216.241997L588.898003,216.241997L587.754002,224.536L636.660004,224.536ZM771.93802,179.204994L772.79602,173.198997L704.87102,173.198997L706.44402,161.472992L800.82402,161.472992L795.9620199999999,196.507996L807.40201,196.507996L805.68604,208.376999L762.50002,208.376999L756.35101,251.849Q755.77902,255.996,752.63303,258.64149Q749.48701,261.28700000000003,745.3400300000001,261.28700000000003L716.31102,261.28700000000003L729.03801,247.98801L734.61502,208.376999L692.43001,208.376999L694.1460099999999,196.507996L769.50702,196.507996L770.36502,190.358994L702.44002,190.358994L704.01302,179.204994L771.93802,179.204994ZM683.13501,256.99699L698.43602,232.25799999999998L725.60602,232.25799999999998L710.30501,256.99699L683.13501,256.99699ZM772.36702,256.99699L764.35901,232.25799999999998L791.52902,232.25799999999998L799.53702,256.99699L772.36702,256.99699ZM698.7220199999999,229.112L692.85901,212.38099699999998L720.02902,212.38099699999998L725.89201,229.112L698.7220199999999,229.112ZM764.93102,229.112L775.37003,212.38099699999998L802.5400099999999,212.38099699999998L792.10101,229.112L764.93102,229.112Z" fill="#3D3D3D" fill-opacity="1"/></g><rect x="301" y="429" width="737" height="92" rx="24" fill-opacity="0" stroke-opacity="1" stroke="#000000" fill="none" stroke-width="2"/><rect x="301" y="571" width="737" height="92" rx="24" fill-opacity="0" stroke-opacity="1" stroke="#000000" fill="none" stroke-width="2"/><rect x="294" y="742" width="739" height="94" rx="47" fill="#FFFFFF" fill-opacity="1"/><g><path d="M655.986,876.259998L656.292002,874.084L655.17,872.8599987L662.956001,872.8599987L662.480001,876.259998L668.260002,876.259998L667.750002,879.796L661.970001,879.796L661.3580019999999,884.147999L666.628002,884.147999L666.118002,887.683998L660.848001,887.683998L660.066002,893.157999L666.628002,893.157999L666.118002,896.694L646.9760008,896.694L647.4860001,893.157999L653.572001,893.157999L654.354,887.683998L649.492001,887.683998L650.002001,884.147999L654.864,884.147999L655.476002,879.796L650.036,879.796L650.546,876.259998L655.986,876.259998ZM639.0200001,897.306L642.0800004,887.683998L647.6220007,887.683998L644.5620003,897.306L639.0200001,897.306ZM642.25,886.3919980000001L641.8420002,880.577999L647.3840008,880.577999L647.7920008,886.3919980000001L642.25,886.3919980000001ZM643.3040004,879.32L642.8960004,873.505999L648.438001,873.505999L648.846001,879.32L643.3040004,879.32ZM676.692001,897.271999L677.848003,896.048L679.276001,885.711998L676.828003,885.711998L674.992004,897.237999L670.096004,897.237999L671.932003,885.711998L670.470001,885.711998L670.912003,882.584L672.408005,882.584L673.870003,873.539999L685.770004,873.539999L684.512001,882.584L686.348003,882.584L687.810005,873.539999L699.710007,873.539999L698.452003,882.584L699.166004,882.584L698.724007,885.711998L698.010002,885.711998L696.718002,894.926001Q696.480003,895.911999,696.004005,896.591999Q695.528004,897.271999,694.610004,897.271999L690.632004,897.271999L691.788002,896.048L693.216003,885.711998L690.768005,885.711998L688.932003,897.237999L684.036003,897.237999L685.872002,885.711998L684.070004,885.711998L682.778004,894.926001Q682.540005,895.911999,682.064003,896.591999Q681.588005,897.271999,680.670002,897.271999L676.692001,897.271999ZM691.278004,882.584L693.658005,882.584L694.542004,876.395998L692.298004,876.395998L691.278004,882.584ZM677.338005,882.584L679.718002,882.584L680.602005,876.395998L678.3580019999999,876.395998L677.338005,882.584Z" fill="#A9A9A9" fill-opacity="1"/></g></g></svg>