<svg xmlns="http://www.w3.org/2000/svg" xmlns:xlink="http://www.w3.org/1999/xlink" fill="none" version="1.1" width="1920" height="1080" viewBox="0 0 1920 1080"><defs><clipPath id="master_svg0_2_10830"><rect x="0" y="0" width="1920" height="1080" rx="0"/></clipPath><linearGradient x1="0.5" y1="0" x2="0.5" y2="1" id="master_svg1_2_19804"><stop offset="0%" stop-color="#5F7CFC" stop-opacity="1"/><stop offset="100%" stop-color="#2AAAE4" stop-opacity="0.20000000298023224"/></linearGradient><linearGradient x1="0.5" y1="0" x2="0.5" y2="1" id="master_svg2_2_19796"><stop offset="0%" stop-color="#001FAA" stop-opacity="1"/><stop offset="100%" stop-color="#001FAA" stop-opacity="0"/></linearGradient><linearGradient x1="0.7392112016677856" y1="0.3771706819534302" x2="0.29498633742332453" y2="0.7442543506622314" id="master_svg3_2_04586"><stop offset="0%" stop-color="#FFFFFF" stop-opacity="1"/><stop offset="36.362531781196594%" stop-color="#FFFFFF" stop-opacity="0.8607373833656311"/><stop offset="99.99997019767761%" stop-color="#FFFFFF" stop-opacity="0"/></linearGradient><mask id="master_svg4_2_10844" style="mask-type:alpha" maskUnits="userSpaceOnUse" x="304" y="-548" width="1424" height="1424"><ellipse cx="1016" cy="164" rx="712" ry="712" fill="url(#master_svg3_2_04586)" fill-opacity="1"/></mask><linearGradient x1="0.026116201654076576" y1="0.34755241870880127" x2="1.3735898733139038" y2="0.6126195788383484" id="master_svg5_2_06222"><stop offset="0%" stop-color="#B6E3FF" stop-opacity="1"/><stop offset="37.388819456100464%" stop-color="#B6E3FF" stop-opacity="0.8344668745994568"/><stop offset="100.00001192092896%" stop-color="#B6E3FF" stop-opacity="0"/></linearGradient><linearGradient x1="0.5" y1="0" x2="0.4800075240260153" y2="0.9998976891369651" id="master_svg6_2_06036"><stop offset="0%" stop-color="#F6F4E5" stop-opacity="0.800000011920929"/><stop offset="37.88304924964905%" stop-color="#F6F4E5" stop-opacity="0.57257479429245"/><stop offset="100%" stop-color="#F6F4E5" stop-opacity="0"/></linearGradient><linearGradient x1="0.5" y1="0" x2="0.4800075240260153" y2="0.9998976891369651" id="master_svg7_2_06036"><stop offset="0%" stop-color="#FFFFFF" stop-opacity="0.800000011920929"/><stop offset="37.88304924964905%" stop-color="#FFFFFF" stop-opacity="0.57257479429245"/><stop offset="100%" stop-color="#FFFFFF" stop-opacity="0"/></linearGradient><mask id="master_svg8_2_10860" style="mask-type:alpha" maskUnits="userSpaceOnUse" x="227" y="50.855712890625" width="1015.9755859375" height="916.144287109375"><path d="M229,967L1102,967L1102,330.00002C1102,265.934975,1050.06506,214,986,214L229,214L229,967Z" fill="url(#master_svg7_2_06036)" fill-opacity="1"/></mask><linearGradient x1="0.8081403374671936" y1="0.17334885895252228" x2="0.27050548791885376" y2="0.8338713049888611" id="master_svg9_2_09459"><stop offset="0%" stop-color="#FFF8E8" stop-opacity="1"/><stop offset="63.53285312652588%" stop-color="#FFF8E8" stop-opacity="0.7433322668075562"/><stop offset="99.99999403953552%" stop-color="#FFF8E8" stop-opacity="0"/></linearGradient><filter id="master_svga_2_10862" filterUnits="objectBoundingBox" color-interpolation-filters="sRGB" x="-0.25510204081632654" y="-1.9607843137254901" width="1.510204081632653" height="4.921568627450981"><feFlood flood-opacity="0" result="BackgroundImageFix"/><feBlend mode="normal" in="SourceGraphic" in2="BackgroundImageFix" result="shape"/><feGaussianBlur stdDeviation="50" result="effect1_foregroundBlur"/></filter><filter id="master_svgb_2_10863" filterUnits="objectBoundingBox" color-interpolation-filters="sRGB" x="-0.049937578027465665" y="-0.08018867924528301" width="1.0998751560549314" height="1.1886792452830188"><feFlood flood-opacity="0" result="BackgroundImageFix"/><feColorMatrix in="SourceAlpha" type="matrix" values="0 0 0 0 0 0 0 0 0 0 0 0 0 0 0 0 0 0 127 0"/><feOffset dy="3" dx="0"/><feGaussianBlur stdDeviation="5"/><feColorMatrix type="matrix" values="0 0 0 0 0 0 0 0 0 0 0 0 0 0 0 0 0 0 0.30000001192092896 0"/><feBlend mode="normal" in2="BackgroundImageFix" result="effect1_dropShadow"/><feBlend mode="normal" in="SourceGraphic" in2="effect1_dropShadow" result="shape"/></filter></defs><g clip-path="url(#master_svg0_2_10830)"><rect x="0" y="0" width="1920" height="1080" rx="0" fill="#FFFBF5" fill-opacity="1"/><path d="M841,1080L1614,1080L2386.5,0L841,0L841,1080Z" fill="url(#master_svg1_2_19804)" fill-opacity="1"/><path d="M-1.5,1080L1438,1080L2210.5,0L-1.5,0L-1.5,1080Z" fill="#4C68D5" fill-opacity="1"/><path d="M-1.5,1080L1227.5,1080L2000,0L-1.5,0L-1.5,1080Z" fill="url(#master_svg2_2_19796)" fill-opacity="1"/><g><path d="M1092.84,775.020004L1093.5,770.180008L1088,764.020004L1126.940002,764.020004L1125.400002,775.020004L1154,775.020004L1151.36,793.720001L1122.760002,793.720001L1121.659996,801.64L1161.03999,801.64L1159.06,771.059998L1152.9,763.800003L1189.42,763.800003L1191.62,801.64L1229.67999,801.64L1226.81999,822.1L1192.94,822.1L1194.7,851.58L1225.72,830.23999L1221.53999,859.5L1196.46001,877.10001L1197.78,899.10001L1212.52,899.10001L1221.98,890.74001L1217.58,921.75999L1169.39999,921.75999L1167.6399999999999,897.12L1148.28,910.75999L1152.46,880.62L1165.88,871.38L1162.58,822.1L1047.96,822.1L1050.82,801.64L1088.880001,801.64L1089.98,793.720001L1057.639999,793.720001L1060.280001,775.020004L1092.84,775.020004ZM1088.66,835.52L1089.759998,827.16L1125.620003,827.16L1124.519997,835.52L1156.2,835.52L1153.34,855.10001L1096.139999,855.10001L1090.200001,865.22L1092.84,865.22L1088.220001,897.78L1105.599998,894.25999L1102.739998,915.38L1051.26,921.98L1054.559999,899.32001L1037.6199999,899.32001L1063.58,855.10001L1047.3,855.10001L1050.16,835.52L1088.66,835.52ZM1127.82,863.24001L1130.459999,870.94L1150.7,860.38L1147.18,885.4599900000001L1137.72,890.52L1149.16,921.98L1117.699997,921.98L1096.360001,863.24001L1127.82,863.24001ZM1230.78,791.740005L1199.53999,791.740005L1196.89999,769.080002L1228.58,769.080002L1230.78,791.740005ZM1280.5,921.98L1326.47998,859.72L1301.84,859.72L1304.9199800000001,838.82001L1334.17999,838.82001L1338.79999,805.38L1313.72,805.38L1316.57999,784.479996L1341.66,784.479996L1343.4199800000001,771.940002L1336.38,763.580002L1386.53998,763.580002L1383.45999,784.479996L1433.62,784.479996L1426.14001,838.82001L1434.5,838.82001L1431.4199800000001,859.72L1376.85999,859.72L1422.62,921.98L1376.64001,921.98L1351.56,888.10001L1326.47998,921.98L1280.5,921.98ZM1238.7,921.98L1262.23999,843L1299.85999,843L1276.31999,921.98L1238.7,921.98ZM1263.56,834.64L1259.81999,771.940002L1297.44,771.940002L1301.17999,834.64L1263.56,834.64ZM1380.59998,805.38L1375.97998,838.82001L1392.70001,838.82001L1397.32001,805.38L1380.59998,805.38ZM1551.53998,869.17999L1552.64001,862.36L1581.02002,849.16L1517.88,849.16L1519.85999,833.10001L1630.73999,833.10001L1628.53998,850.26001L1587.40002,869.17999L1625.67999,869.17999L1623.03998,888.32001L1583.88,888.32001L1581.02002,908.12Q1580.14001,914.28,1575.84998,918.02Q1571.56,921.75999,1565.39996,921.75999L1529.09998,921.75999L1546.9199800000001,903.5L1548.89996,888.32001L1512.15997,888.32001L1514.79999,869.17999L1551.53998,869.17999ZM1630.9599600000001,828.26001L1598.83997,828.26001L1600.38,818.14L1553.9599600000001,818.14L1552.4199800000001,828.26001L1520.07999,828.26001L1524.03998,800.76L1561.21997,800.76L1562.32001,792.400002L1527.56,792.400002L1529.97998,774.8000030000001L1564.73999,774.8000030000001L1566.27997,763.800003L1601.26001,763.800003L1599.71997,774.8000030000001L1636.90002,774.8000030000001L1634.47998,792.400002L1597.29999,792.400002L1596.19995,800.76L1634.9199800000001,800.76L1630.9599600000001,828.26001ZM1477.62,771.720001L1472.78,763.580002L1507.53998,763.580002L1485.09998,921.75999L1456.5,921.75999L1477.62,771.720001ZM1441.09998,878.64L1456.5,794.8199999999999L1471.45999,794.8199999999999L1457.15997,878.64L1441.09998,878.64ZM1500.28,838.82001L1506.21997,794.8199999999999L1520.73999,794.8199999999999L1515.45999,838.82001L1500.28,838.82001ZM1825.43994,868.08L1749.09998,875.78L1746.23993,897.34L1817.2999300000001,897.34L1826.7599500000001,888.98L1822.57996,918.24001L1705.5399200000002,918.24001L1717.8599199999999,830.4599900000001L1755.47998,830.4599900000001L1752.6199299999998,850.48001L1828.9599600000001,843L1825.43994,868.08ZM1731.93994,773.6999969999999L1726.6599700000002,767.759995L1822.7999300000001,767.759995L1836.21997,822.1L1794.41992,822.1L1786.27997,788.660004L1765.81995,788.660004L1748.43994,822.1L1706.63995,822.1L1731.93994,773.6999969999999ZM1646.57996,921.98L1659.9999400000002,826.28L1651.63995,826.28L1654.4999400000002,805.38L1700.47998,805.38L1688.37994,892.06L1701.3599199999999,888.98L1698.4999400000002,909.88L1646.57996,921.98ZM1693.43994,767.759995L1701.7999300000001,797.020004L1668.3599199999999,797.020004L1660.21997,767.759995L1693.43994,767.759995Z" fill="#3D3D3D" fill-opacity="0"/></g><g><path d="M1048.7919998,953.120003L1047.4239998,951.032001L1062.615999,951.032001L1061.679998,957.296001L1070.247999,957.296001L1068.807999,964.208L1060.816,964.208L1058.439999,980.768002L1065.351999,980.768002L1063.983999,987.6800000000001L1048.7919998,987.6800000000001Q1046.7039995,987.6800000000001,1045.4079995,986.311996Q1044.112,984.944,1044.6159997,982.855999L1047.4239998,964.208L1041.8799999,964.208L1042.5999999,957.296001L1048.2159996,957.296001L1048.7919998,953.120003ZM1094.584,942.752003L1092.568001,957.296001L1114.671997,957.296001L1110.496002,987.6800000000001L1096.671997,987.6800000000001L1100.127998,964.208L1091.848,964.208L1088.391998,987.6800000000001L1074.568001,987.6800000000001L1080.759998,944.84L1079.391998,942.752003L1094.584,942.752003ZM1157.08,975.223999L1134.975998,975.223999L1134.255997,980.768002L1153.624,980.768002L1157.08,978.032001L1154.992,987.6800000000001L1124.608002,987.6800000000001Q1122.520004,987.6800000000001,1121.475998,986.311996Q1120.431999,984.944,1120.431999,982.855999L1123.888,957.296001L1159.816,957.296001L1157.08,975.223999ZM1136.992004,964.208L1136.344002,968.312L1144.624,968.312L1145.344,964.208L1136.992004,964.208ZM1234.26399,957.296001L1247.44,957.296001L1230.808,987.6800000000001L1216.98399,987.6800000000001L1209.424,960.032001L1207.336,957.296001L1221.87999,957.296001L1225.98399,974.576L1234.26399,957.296001ZM1288.40799,975.223999L1266.3039899999999,975.223999L1265.5839799999999,980.768002L1284.952,980.768002L1288.40799,978.032001L1286.31999,987.6800000000001L1255.93599,987.6800000000001Q1253.84799,987.6800000000001,1252.8039899999999,986.311996Q1251.75999,984.944,1251.75999,982.855999L1255.21599,957.296001L1291.14398,957.296001L1288.40799,975.223999ZM1268.31999,964.208L1267.672,968.312L1275.952,968.312L1276.67198,964.208L1268.31999,964.208ZM1313.46399,957.296001L1312.09598,966.944L1321.81598,957.296001L1335.63998,957.296001L1312.09598,978.032001L1310.728,987.6800000000001L1296.90399,987.6800000000001L1300.93597,959.312L1299.49597,957.296001L1313.46399,957.296001ZM1365.08798,942.752003L1378.91199,942.752003L1372.72,987.6800000000001L1341.616,987.6800000000001Q1339.52798,987.6800000000001,1338.4840100000001,986.311996Q1337.44,984.944,1337.44,982.855999L1340.896,957.296001L1363,957.296001L1365.08798,942.752003ZM1353.63998,964.208L1350.97598,980.768002L1359.76001,980.768002L1362.3519900000001,964.208L1353.63998,964.208ZM1402.23999,955.208L1389.064,955.208L1389.784,946.928001L1403.60797,946.928001L1402.23999,955.208ZM1402.23999,957.296001L1398.064,987.6800000000001L1384.23999,987.6800000000001L1388.41599,959.312L1386.32797,957.296001L1402.23999,957.296001ZM1448.75198,964.208L1426.64798,964.208L1423.91199,980.768002L1443.2079800000001,980.768002L1446.66397,978.032001L1445.29596,987.6800000000001L1409.36798,987.6800000000001L1414.19199,957.296001L1449.47198,957.296001L1448.75198,964.208ZM1462.14398,953.120003L1460.776,951.032001L1475.96799,951.032001L1475.03198,957.296001L1483.59998,957.296001L1482.15997,964.208L1474.1680000000001,964.208L1471.79199,980.768002L1478.70398,980.768002L1477.336,987.6800000000001L1462.14398,987.6800000000001Q1460.056,987.6800000000001,1458.75998,986.311996Q1457.46399,984.944,1457.96799,982.855999L1460.776,964.208L1455.23199,964.208L1455.952,957.296001L1461.56799,957.296001L1462.14398,953.120003ZM1573.52802,957.296001L1570.07196,982.855999Q1569.92798,983.936001,1569.3519900000001,984.8000030000001Q1568.7759999999998,985.664001,1567.9479999999999,986.311996Q1567.12,986.959999,1566.21997,987.3199999999999Q1565.32001,987.6800000000001,1564.52802,987.6800000000001L1547.31998,987.6800000000001L1544.944,1002.8000030000001L1531.12,1002.8000030000001L1537.52798,959.384003L1535.51199,957.296001L1573.52802,957.296001ZM1550.70398,964.208L1548.112,981.4159999999999L1556.46399,981.4159999999999L1558.9840100000001,964.208L1550.70398,964.208ZM1603.19196,964.208L1595.84796,964.208L1595.19995,966.944L1581.37598,966.944L1583.46399,957.296001L1617.30396,957.296001L1613.12793,984.223999L1615.93597,987.6800000000001L1583.46399,987.6800000000001Q1581.37598,987.6800000000001,1580.33197,986.311996Q1579.28796,984.944,1579.28796,982.855999L1581.37598,969.68L1602.11194,969.68L1603.19196,964.208ZM1593.83197,976.592003L1593.11194,980.768002L1600.0239900000001,980.768002L1600.74396,976.592003L1593.83197,976.592003ZM1639.26398,957.296001L1637.896,966.944L1647.6159699999998,957.296001L1661.43994,957.296001L1637.896,978.032001L1636.5279500000001,987.6800000000001L1622.70398,987.6800000000001L1626.73596,959.312L1625.29596,957.296001L1639.26398,957.296001ZM1687.14398,964.208L1679.79999,964.208L1679.15198,966.944L1665.328,966.944L1667.4160200000001,957.296001L1701.25598,957.296001L1697.07996,984.223999L1699.888,987.6800000000001L1667.4160200000001,987.6800000000001Q1665.328,987.6800000000001,1664.284,986.311996Q1663.23999,984.944,1663.23999,982.855999L1665.328,969.68L1686.06396,969.68L1687.14398,964.208ZM1677.784,976.592003L1677.06396,980.768002L1683.9760099999999,980.768002L1684.69598,976.592003L1677.784,976.592003ZM1734.30402,942.752003L1748.12799,942.752003L1741.93597,987.6800000000001L1710.83203,987.6800000000001Q1708.74402,987.6800000000001,1707.70001,986.311996Q1706.6560100000002,984.944,1706.6560100000002,982.855999L1710.112,957.296001L1732.216,957.296001L1734.30402,942.752003ZM1722.85602,964.208L1720.19202,980.768002L1728.9760099999999,980.768002L1731.56799,964.208L1722.85602,964.208ZM1788.0159899999999,957.296001Q1790.104,957.296001,1791.1480099999999,958.988003Q1792.19202,960.68,1792.19202,962.768002L1788.73596,987.6800000000001L1757.6319600000002,987.6800000000001Q1755.54401,987.6800000000001,1754.5,986.311996Q1753.45599,984.944,1753.45599,982.855999L1756.91199,957.296001L1788.0159899999999,957.296001ZM1770.0159899999999,964.208L1767.27997,980.768002L1775.56,980.768002L1778.36798,964.208L1770.0159899999999,964.208ZM1799.96796,957.296001L1814.51196,957.296001L1817.53595,963.704002L1821.4239499999999,958.664001L1820.70398,957.296001L1835.8959399999999,957.296001L1823.2239399999999,972.487999L1831.7919299999999,987.6800000000001L1817.96796,987.6800000000001L1814.94397,981.992001L1809.6159699999998,987.6800000000001L1796.51196,987.6800000000001L1809.1839599999998,972.487999L1802.05597,960.032001L1799.96796,957.296001Z" fill="#3D3D3D" fill-opacity="0"/></g><g mask="url(#master_svg4_2_10844)"><g transform="matrix(-0.9904399514198303,-0.1379445493221283,0.1379445493221283,-0.9904399514198303,2920.0199959205056,1888.5445000478576)"><ellipse cx="2129.4514083862305" cy="1447.0883712768555" rx="97.2472152709961" ry="97.2472152709961" fill-opacity="0" stroke-opacity="0.30000001192092896" stroke="#FFFFFF" fill="none" stroke-width="11"/><ellipse cx="2129.451431274414" cy="1447.088394165039" rx="356.59539794921875" ry="356.59539794921875" fill-opacity="0" stroke-opacity="1" stroke="#FFFFFF" fill="none" stroke-width="7"/><ellipse cx="2129.451400756836" cy="1447.088363647461" rx="432.57470703125" ry="432.57470703125" fill-opacity="0" stroke-opacity="1" stroke="#FFFFFF" fill="none" stroke-width="1"/><ellipse cx="2129.4513931274414" cy="1447.0883560180664" rx="573.6128540039062" ry="573.6128540039062" fill-opacity="0" stroke-opacity="0.5899999737739563" stroke="#FFFFFF" fill="none" stroke-width="7"/><ellipse cx="2129.451416015625" cy="1447.08837890625" rx="603" ry="603" fill-opacity="0" stroke-opacity="1" stroke="#FFFFFF" fill="none" stroke-width="2"/><ellipse cx="2129.451416015625" cy="1447.08837890625" rx="209.71621704101562" ry="209.71621704101562" fill-opacity="0" stroke-opacity="0.6000000238418579" stroke="#FFFFFF" fill="none" stroke-width="5"/><ellipse cx="2129.451416015625" cy="1447.08837890625" rx="316.3442077636719" ry="316.3442077636719" fill-opacity="0" stroke-opacity="1" stroke="#FFFFFF" fill="none" stroke-width="3"/></g><ellipse cx="1657.1434326171875" cy="772.7996826171875" rx="107" ry="107" fill="url(#master_svg5_2_06222)" fill-opacity="1" transform="matrix(-0.9904399514198303,-0.1379445493221283,0.1379445493221283,-0.9904399514198303,2993.6239815548797,1539.068125120928)"/><ellipse cx="1127.9861450195312" cy="583.6334228515625" rx="31.5" ry="31.5" fill="#D8D8D8" fill-opacity="1" transform="matrix(-0.9904399514198303,-0.1379445493221283,0.1379445493221283,-0.9904399514198303,2106.32603304425,1250.2427104706057)"/><ellipse cx="1063.7844848632812" cy="854.2833251953125" rx="49" ry="49" fill="#D8D8D8" fill-opacity="1" transform="matrix(-0.9904399514198303,-0.1379445493221283,0.1379445493221283,-0.9904399514198303,1908.7831353821748,1742.8520911045107)"/></g><path d="M229,967L1102,967L1102,330.00002C1102,265.934975,1050.06506,214,986,214L229,214L229,967Z" fill="url(#master_svg6_2_06036)" fill-opacity="1"/><g mask="url(#master_svg8_2_10860)"><ellipse cx="924.9755859375" cy="368.855712890625" rx="318" ry="318" fill="url(#master_svg9_2_09459)" fill-opacity="1"/><rect x="227" y="210" width="784" height="102" rx="0" fill="#FFF8E8" fill-opacity="1" filter="url(#master_svga_2_10862)"/></g><g filter="url(#master_svgb_2_10863)"><path d="M475,312L824,312L845.5731499999999,178.451969C850.77887,146.226048,825.89508,117,793.2514,117L506.5,117L475,312Z" fill="#E9FBFF" fill-opacity="1"/><path d="M495,295L844,295L865.5731499999999,161.451969C870.77887,129.226048,845.89508,100,813.2514,100L526.5,100L495,295ZM838.8914500000001,289L502.0470114,289L531.608547,106L813.2514,106.0000038Q834.96252,106,849.03738,122.530935Q863.1122399999999,139.061855,859.64993,160.49514L838.8914500000001,289Z" fill-rule="evenodd" fill="#10417A" fill-opacity="1"/><g><path d="M623.647003,172.769997L624.934006,163.617996L620.215004,158.46999399999999L652.96201,158.46999399999999L650.96001,172.769997L675.27,172.769997L673.12501,187.641998L648.815,187.641998L646.241005,205.945999L668.40601,205.945999L666.2610099999999,220.81799L644.096008,220.81799L640.807007,243.841L668.40601,243.841L666.2610099999999,258.71299999999997L585.7520030000001,258.71299999999997L587.897003,243.841L613.494003,243.841L616.783005,220.81799L596.334003,220.81799L598.479004,205.945999L618.928001,205.945999L621.502007,187.641998L598.622002,187.641998L600.767002,172.769997L623.647003,172.769997ZM552.29,261.28700000000003L565.16,220.81799L588.469002,220.81799L575.599001,261.28700000000003L552.29,261.28700000000003ZM565.875,215.384003L564.159,190.93099999999998L587.468002,190.93099999999998L589.184002,215.384003L565.875,215.384003ZM570.308001,185.639999L568.592001,161.186996L591.901001,161.186996L593.617001,185.639999L570.308001,185.639999ZM710.73401,261.144L715.59601,255.996L721.60202,212.524002L711.30602,212.524002L703.58401,261.00101L682.99202,261.00101L690.71402,212.524002L684.56502,212.524002L686.42401,199.367996L692.71602,199.367996L698.86502,161.329994L748.9150099999999,161.329994L743.62402,199.367996L751.34601,199.367996L757.49503,161.329994L807.54501,161.329994L802.2540300000001,199.367996L805.25702,199.367996L803.39801,212.524002L800.3950199999999,212.524002L794.9610299999999,251.27699Q793.96002,255.424,791.9580100000001,258.284Q789.95602,261.144,786.09502,261.144L769.36401,261.144L774.22601,255.996L780.23203,212.524002L769.93602,212.524002L762.21402,261.00101L741.62201,261.00101L749.34402,212.524002L741.76501,212.524002L736.33102,251.27699Q735.33002,255.424,733.32802,258.284Q731.32602,261.144,727.46501,261.144L710.73401,261.144ZM772.08102,199.367996L782.09102,199.367996L785.80902,173.341995L776.37102,173.341995L772.08102,199.367996ZM713.45102,199.367996L723.46101,199.367996L727.17902,173.341995L717.74101,173.341995L713.45102,199.367996Z" fill="#10417A" fill-opacity="1"/></g></g><rect x="294" y="742" width="739" height="94" rx="47" fill="#FFFFFF" fill-opacity="1"/><ellipse cx="318" cy="483" rx="2" ry="2" fill="#000000" fill-opacity="1"/><ellipse cx="304" cy="497" rx="2" ry="2" fill="#000000" fill-opacity="1"/><g><path d="M400,481L386,481L386,484L400,484L400,481ZM405,484L1014,484Q1023.11261,484,1029.55627,490.4436512Q1036,496.887377,1036,506L1036,550Q1036,559.112617,1029.55627,565.556343Q1023.11261,572,1014,572L325,572Q315.887308,572,309.4436512,565.556343Q303,559.112694,303,550L303,506Q303,505.033842,303.072433,504.097683L300.31937307,502.016703Q300,503.995548,300,506L300,550Q300,550.613716,300.030113591,551.226692Q300.060227182,551.839661,300.12038182,552.450424Q300.18053646,553.06118,300.27058721,553.668259Q300.36063796,554.2753299999999,300.48036793,554.877251Q300.60009789,555.4791720000001,300.74921858,556.074501Q300.89833927,556.669823,301.0764915,557.257111Q301.2546437,557.844398,301.4613981,558.422241Q301.6681527,559.000076,301.9030114,559.567078Q302.1378703,560.134079,302.4002674,560.6888730000001Q302.6626647,561.243668,302.9519682,561.784912Q303.2412715,562.326157,303.5567844,562.852554Q303.8722973,563.378952,304.2132592,563.889244Q304.5542212,564.399529,304.9198112,564.892471Q305.2854013,565.385414,305.6747384,565.859825Q306.0640755,566.334236,306.4762216,566.788963Q306.8883677,567.243698,307.32233,567.677666Q307.7562923,568.111633,308.2110252,568.523773Q308.6657581,568.935921,309.1401672,569.325256Q309.6145754,569.7145840000001,310.107516,570.08017Q310.600457,570.44577,311.110743,570.786728Q311.621029,571.127693,312.14743,571.443207Q312.673832,571.758728,313.215081,572.048035Q313.756329,572.337326,314.311121,572.599731Q314.865913,572.862122,315.432913,573.096985Q315.999912,573.3318409999999,316.57775300000003,573.538589Q317.155594,573.745354,317.742884,573.923508Q318.330173,574.101662,318.925495,574.250778Q319.520819,574.399902,320.122742,574.519638Q320.724667,574.639374,321.331738,574.729416Q321.938812,574.819473,322.549572,574.879623Q323.160332,574.9397739999999,323.773308,574.969887Q324.386284,575,325,575L1014,575Q1014.61371,575,1015.22668,574.969887Q1015.83972,574.9397739999999,1016.45044,574.8796159999999Q1017.06122,574.8194579999999,1017.66833,574.729408Q1018.27533,574.639359,1018.8772,574.519623Q1019.47913,574.399902,1020.0744,574.250778Q1020.66974,574.101654,1021.25702,573.9235Q1021.8443,573.745346,1022.42212,573.538589Q1023,573.331833,1023.56696,573.096977Q1024.13391,572.862122,1024.68872,572.599716Q1025.24353,572.337326,1025.78485,572.048019Q1026.3260500000001,571.758713,1026.8524200000002,571.443207Q1027.37885,571.127701,1027.88916,570.786736Q1028.39941,570.44577,1028.89246,570.080177Q1029.3853800000002,569.714592,1029.85986,569.3252640000001Q1030.33423,568.935928,1030.78894,568.523773Q1031.24365,568.111633,1031.67761,567.677666Q1032.11157,567.243698,1032.52374,566.788971Q1032.9359100000001,566.334236,1033.32526,565.859825Q1033.71454,565.385414,1034.08014,564.892471Q1034.44568,564.399529,1034.7866199999999,563.889244Q1035.12756,563.378952,1035.44312,562.852554Q1035.7586700000002,562.326157,1036.04797,561.784912Q1036.33728,561.243668,1036.59967,560.6888730000001Q1036.86206,560.134079,1037.09692,559.567078Q1037.33179,559.000076,1037.5385099999999,558.422241Q1037.7453,557.844398,1037.92346,557.257111Q1038.10162,556.669823,1038.25073,556.074493Q1038.39984,555.4791720000001,1038.5195899999999,554.877251Q1038.6392799999999,554.2753299999999,1038.7294299999999,553.668251Q1038.8194600000002,553.06118,1038.87964,552.450424Q1038.93976,551.839661,1038.96985,551.226685Q1039,550.613716,1039,550L1039,506Q1039,505.386284,1038.96991,504.773308Q1038.93976,504.160332,1038.87964,503.549572Q1038.8194600000002,502.93881,1038.72937,502.331736Q1038.6392799999999,501.724663,1038.51953,501.12274Q1038.39978,500.520817,1038.25067,499.925495Q1038.10156,499.33017,1037.92346,498.742882Q1037.7453,498.155594,1037.5385099999999,497.57775300000003Q1037.33179,496.999912,1037.09692,496.432913Q1036.86206,495.865913,1036.59967,495.311121Q1036.33728,494.75633,1036.04797,494.215082Q1035.7586700000002,493.673832,1035.44312,493.14743Q1035.12756,492.621029,1034.7866199999999,492.110744Q1034.44568,491.600458,1034.08008,491.107517Q1033.71454,490.6145763,1033.32526,490.1401682Q1032.9359100000001,489.6657591,1032.5238,489.2110262Q1032.11157,488.7562923,1031.67761,488.32233Q1031.24365,487.8883677,1030.78894,487.4762216Q1030.33423,487.0640755,1029.85986,486.6747389Q1029.3853800000002,486.2854013,1028.89246,485.9198112Q1028.39941,485.5542212,1027.88916,485.2132592Q1027.37891,484.8722973,1026.8525399999999,484.5567844Q1026.32617,484.2412715,1025.7849099999999,483.9519682Q1025.24365,483.6626647,1024.68884,483.4002676Q1024.1340300000002,483.1378703,1023.56702,482.9030114Q1023,482.6681527,1022.42218,482.4613982Q1021.84436,482.2546437,1021.25708,482.0764915Q1020.6698,481.89833927,1020.07446,481.74921852Q1019.47913,481.60009789,1018.8772,481.48036793Q1018.27533,481.36063796,1017.66833,481.27058721Q1017.06122,481.18053646,1016.45044,481.12038182Q1015.83972,481.060227182,1015.22668,481.030113591Q1014.61371,481,1014,481L405,481L405,484ZM325,481L369,481L369,484L325.310766,484L324.042955,481.018325379Q324.521303,481,325,481ZM305.3609929,490.5303717Q306.7730155,488.7377796,308.4862461,487.2304516Q310.199475,485.723124,312.15729,484.550879L313.325785,487.2989802Q311.276719,488.6105828,309.4436512,490.4436512Q308.52752399999997,491.359778,307.7416463,492.329859L305.3609929,490.5303717Z" fill-rule="evenodd" fill="#000000" fill-opacity="1"/></g><ellipse cx="318" cy="356" rx="2" ry="2" fill="#000000" fill-opacity="1"/><ellipse cx="304" cy="370" rx="2" ry="2" fill="#000000" fill-opacity="1"/><g><path d="M400,354L386,354L386,357L400,357L400,354ZM405,357L1014,357Q1023.11261,357,1029.55627,363.4436512Q1036,369.887377,1036,379L1036,423Q1036,432.112617,1029.55627,438.55634299999997Q1023.11261,445,1014,445L325,445Q315.887308,445,309.4436512,438.55634299999997Q303,432.11269400000003,303,423L303,379Q303,378.033842,303.072433,377.097683L300.31937307,375.016703Q300,376.995548,300,379L300,423Q300,423.613716,300.030113591,424.226692Q300.060227182,424.839661,300.12038182,425.450424Q300.18053646,426.06118,300.27058721,426.66825900000003Q300.36063796,427.27533,300.48036793,427.877251Q300.60009789,428.479172,300.74921858,429.074501Q300.89833927,429.669823,301.0764915,430.257111Q301.2546437,430.844398,301.4613981,431.422241Q301.6681527,432.00007600000004,301.9030114,432.567078Q302.1378703,433.134079,302.4002674,433.688873Q302.6626647,434.243668,302.9519682,434.784912Q303.2412715,435.32615699999997,303.5567844,435.852554Q303.8722973,436.378952,304.2132592,436.889244Q304.5542212,437.39952900000003,304.9198112,437.892471Q305.2854013,438.38541399999997,305.6747384,438.859825Q306.0640755,439.33423600000003,306.4762216,439.78896299999997Q306.8883677,440.243698,307.32233,440.677666Q307.7562923,441.111633,308.2110252,441.523773Q308.6657581,441.935921,309.1401672,442.32525599999997Q309.6145754,442.714584,310.107516,443.08017Q310.600457,443.44577,311.110743,443.786728Q311.621029,444.127693,312.14743,444.44320700000003Q312.673832,444.758728,313.215081,445.048035Q313.756329,445.337326,314.311121,445.599731Q314.865913,445.862122,315.432913,446.096985Q315.999912,446.331841,316.57775300000003,446.538589Q317.155594,446.745354,317.742884,446.92350799999997Q318.330173,447.10166200000003,318.925495,447.25077799999997Q319.520819,447.399902,320.122742,447.519638Q320.724667,447.639374,321.331738,447.729416Q321.938812,447.819473,322.549572,447.879623Q323.160332,447.939774,323.773308,447.96988699999997Q324.386284,448,325,448L1014,448Q1014.61371,448,1015.22668,447.96988699999997Q1015.83972,447.939774,1016.45044,447.879616Q1017.06122,447.819458,1017.66833,447.72940800000003Q1018.27533,447.639359,1018.8772,447.519623Q1019.47913,447.399902,1020.0744,447.25077799999997Q1020.66974,447.101654,1021.25702,446.9235Q1021.8443,446.745346,1022.42212,446.538589Q1023,446.331833,1023.56696,446.096977Q1024.13391,445.862122,1024.68872,445.599716Q1025.24353,445.337326,1025.78485,445.048019Q1026.3260500000001,444.758713,1026.8524200000002,444.44320700000003Q1027.37885,444.127701,1027.88916,443.786736Q1028.39941,443.44577,1028.89246,443.080177Q1029.3853800000002,442.714592,1029.85986,442.325264Q1030.33423,441.935928,1030.78894,441.523773Q1031.24365,441.111633,1031.67761,440.677666Q1032.11157,440.243698,1032.52374,439.788971Q1032.9359100000001,439.33423600000003,1033.32526,438.859825Q1033.71454,438.38541399999997,1034.08014,437.892471Q1034.44568,437.39952900000003,1034.7866199999999,436.889244Q1035.12756,436.378952,1035.44312,435.852554Q1035.7586700000002,435.32615699999997,1036.04797,434.784912Q1036.33728,434.243668,1036.59967,433.688873Q1036.86206,433.134079,1037.09692,432.567078Q1037.33179,432.00007600000004,1037.5385099999999,431.422241Q1037.7453,430.844398,1037.92346,430.257111Q1038.10162,429.669823,1038.25073,429.074493Q1038.39984,428.479172,1038.5195899999999,427.877251Q1038.6392799999999,427.27533,1038.7294299999999,426.668251Q1038.8194600000002,426.06118,1038.87964,425.450424Q1038.93976,424.839661,1038.96985,424.226685Q1039,423.613716,1039,423L1039,379Q1039,378.386284,1038.96991,377.773308Q1038.93976,377.160332,1038.87964,376.549572Q1038.8194600000002,375.93881,1038.72937,375.331736Q1038.6392799999999,374.724663,1038.51953,374.12274Q1038.39978,373.520817,1038.25067,372.925495Q1038.10156,372.33017,1037.92346,371.742882Q1037.7453,371.155594,1037.5385099999999,370.57775300000003Q1037.33179,369.999912,1037.09692,369.432913Q1036.86206,368.865913,1036.59967,368.311121Q1036.33728,367.75633,1036.04797,367.215082Q1035.7586700000002,366.673832,1035.44312,366.14743Q1035.12756,365.621029,1034.7866199999999,365.110744Q1034.44568,364.600458,1034.08008,364.107517Q1033.71454,363.6145763,1033.32526,363.1401682Q1032.9359100000001,362.6657591,1032.5238,362.2110262Q1032.11157,361.7562923,1031.67761,361.32233Q1031.24365,360.8883677,1030.78894,360.4762216Q1030.33423,360.0640755,1029.85986,359.6747389Q1029.3853800000002,359.2854013,1028.89246,358.9198112Q1028.39941,358.5542212,1027.88916,358.2132592Q1027.37891,357.8722973,1026.8525399999999,357.5567844Q1026.32617,357.2412715,1025.7849099999999,356.9519682Q1025.24365,356.6626647,1024.68884,356.4002676Q1024.1340300000002,356.1378703,1023.56702,355.9030114Q1023,355.6681527,1022.42218,355.4613982Q1021.84436,355.2546437,1021.25708,355.0764915Q1020.6698,354.89833927,1020.07446,354.74921852Q1019.47913,354.60009789,1018.8772,354.48036793Q1018.27533,354.36063796,1017.66833,354.27058721Q1017.06122,354.18053646,1016.45044,354.12038182Q1015.83972,354.060227182,1015.22668,354.030113591Q1014.61371,354,1014,354L405,354L405,357ZM325,354L369,354L369,357L325.310766,357L324.042955,354.018325379Q324.521303,354,325,354ZM305.3609929,363.5303717Q306.7730155,361.7377796,308.4862461,360.2304516Q310.199475,358.723124,312.15729,357.550879L313.325785,360.2989802Q311.276719,361.6105828,309.4436512,363.4436512Q308.52752399999997,364.359778,307.7416463,365.329859L305.3609929,363.5303717Z" fill-rule="evenodd" fill="#000000" fill-opacity="1"/></g><ellipse cx="318" cy="610" rx="2" ry="2" fill="#000000" fill-opacity="1"/><ellipse cx="304" cy="624" rx="2" ry="2" fill="#000000" fill-opacity="1"/><g><path d="M400,608L386,608L386,611L400,611L400,608ZM405,611L1014,611Q1023.11261,611,1029.55627,617.4436512Q1036,623.887377,1036,633L1036,677Q1036,686.112617,1029.55627,692.556343Q1023.11261,699,1014,699L325,699Q315.887308,699,309.4436512,692.556343Q303,686.112694,303,677L303,633Q303,632.033842,303.072433,631.097683L300.31937307,629.016703Q300,630.995548,300,633L300,677Q300,677.613716,300.030113591,678.226692Q300.060227182,678.839661,300.12038182,679.450424Q300.18053646,680.06118,300.27058721,680.668259Q300.36063796,681.2753299999999,300.48036793,681.877251Q300.60009789,682.4791720000001,300.74921858,683.074501Q300.89833927,683.669823,301.0764915,684.257111Q301.2546437,684.844398,301.4613981,685.422241Q301.6681527,686.000076,301.9030114,686.567078Q302.1378703,687.134079,302.4002674,687.6888730000001Q302.6626647,688.243668,302.9519682,688.784912Q303.2412715,689.326157,303.5567844,689.852554Q303.8722973,690.378952,304.2132592,690.889244Q304.5542212,691.399529,304.9198112,691.892471Q305.2854013,692.385414,305.6747384,692.859825Q306.0640755,693.334236,306.4762216,693.788963Q306.8883677,694.243698,307.32233,694.677666Q307.7562923,695.111633,308.2110252,695.523773Q308.6657581,695.935921,309.1401672,696.325256Q309.6145754,696.7145840000001,310.107516,697.08017Q310.600457,697.44577,311.110743,697.786728Q311.621029,698.127693,312.14743,698.443207Q312.673832,698.758728,313.215081,699.048035Q313.756329,699.337326,314.311121,699.599731Q314.865913,699.862122,315.432913,700.096985Q315.999912,700.3318409999999,316.57775300000003,700.538589Q317.155594,700.745354,317.742884,700.923508Q318.330173,701.101662,318.925495,701.250778Q319.520819,701.399902,320.122742,701.519638Q320.724667,701.639374,321.331738,701.729416Q321.938812,701.819473,322.549572,701.879623Q323.160332,701.9397739999999,323.773308,701.969887Q324.386284,702,325,702L1014,702Q1014.61371,702,1015.22668,701.969887Q1015.83972,701.9397739999999,1016.45044,701.8796159999999Q1017.06122,701.8194579999999,1017.66833,701.729408Q1018.27533,701.639359,1018.8772,701.519623Q1019.47913,701.399902,1020.0744,701.250778Q1020.66974,701.101654,1021.25702,700.9235Q1021.8443,700.745346,1022.42212,700.538589Q1023,700.331833,1023.56696,700.096977Q1024.13391,699.862122,1024.68872,699.599716Q1025.24353,699.337326,1025.78485,699.048019Q1026.3260500000001,698.758713,1026.8524200000002,698.443207Q1027.37885,698.127701,1027.88916,697.786736Q1028.39941,697.44577,1028.89246,697.080177Q1029.3853800000002,696.714592,1029.85986,696.3252640000001Q1030.33423,695.935928,1030.78894,695.523773Q1031.24365,695.111633,1031.67761,694.677666Q1032.11157,694.243698,1032.52374,693.788971Q1032.9359100000001,693.334236,1033.32526,692.859825Q1033.71454,692.385414,1034.08014,691.892471Q1034.44568,691.399529,1034.7866199999999,690.889244Q1035.12756,690.378952,1035.44312,689.852554Q1035.7586700000002,689.326157,1036.04797,688.784912Q1036.33728,688.243668,1036.59967,687.6888730000001Q1036.86206,687.134079,1037.09692,686.567078Q1037.33179,686.000076,1037.5385099999999,685.422241Q1037.7453,684.844398,1037.92346,684.257111Q1038.10162,683.669823,1038.25073,683.074493Q1038.39984,682.4791720000001,1038.5195899999999,681.877251Q1038.6392799999999,681.2753299999999,1038.7294299999999,680.668251Q1038.8194600000002,680.06118,1038.87964,679.450424Q1038.93976,678.839661,1038.96985,678.226685Q1039,677.613716,1039,677L1039,633Q1039,632.386284,1038.96991,631.773308Q1038.93976,631.160332,1038.87964,630.549572Q1038.8194600000002,629.93881,1038.72937,629.331736Q1038.6392799999999,628.724663,1038.51953,628.12274Q1038.39978,627.520817,1038.25067,626.925495Q1038.10156,626.33017,1037.92346,625.742882Q1037.7453,625.155594,1037.5385099999999,624.577753Q1037.33179,623.999912,1037.09692,623.432913Q1036.86206,622.865913,1036.59967,622.311121Q1036.33728,621.75633,1036.04797,621.215082Q1035.7586700000002,620.673832,1035.44312,620.14743Q1035.12756,619.621029,1034.7866199999999,619.110744Q1034.44568,618.600458,1034.08008,618.107517Q1033.71454,617.6145763,1033.32526,617.1401682Q1032.9359100000001,616.6657591,1032.5238,616.2110262Q1032.11157,615.7562923,1031.67761,615.32233Q1031.24365,614.8883677,1030.78894,614.4762216Q1030.33423,614.0640755,1029.85986,613.6747389Q1029.3853800000002,613.2854013,1028.89246,612.9198112Q1028.39941,612.5542212,1027.88916,612.2132592Q1027.37891,611.8722973,1026.8525399999999,611.5567844Q1026.32617,611.2412715,1025.7849099999999,610.9519682Q1025.24365,610.6626647,1024.68884,610.4002676Q1024.1340300000002,610.1378703,1023.56702,609.9030114Q1023,609.6681527,1022.42218,609.4613982Q1021.84436,609.2546437,1021.25708,609.0764915Q1020.6698,608.89833927,1020.07446,608.74921852Q1019.47913,608.60009789,1018.8772,608.48036793Q1018.27533,608.36063796,1017.66833,608.27058721Q1017.06122,608.18053646,1016.45044,608.12038182Q1015.83972,608.060227182,1015.22668,608.030113591Q1014.61371,608,1014,608L405,608L405,611ZM325,608L369,608L369,611L325.310766,611L324.042955,608.018325379Q324.521303,608,325,608ZM305.3609929,617.5303717Q306.7730155,615.7377796,308.4862461,614.2304516Q310.199475,612.723124,312.15729,611.550879L313.325785,614.2989802Q311.276719,615.6105828,309.4436512,617.4436512Q308.52752399999997,618.359778,307.7416463,619.329859L305.3609929,617.5303717Z" fill-rule="evenodd" fill="#000000" fill-opacity="1"/></g></g></svg>