<svg xmlns="http://www.w3.org/2000/svg" xmlns:xlink="http://www.w3.org/1999/xlink" fill="none" version="1.1" width="2482" height="477" viewBox="0 0 2482 477"><defs><linearGradient x1="0.5" y1="0" x2="0.5" y2="1" id="master_svg0_2_23882"><stop offset="0%" stop-color="#3C59CB" stop-opacity="0.10000000149011612"/><stop offset="100%" stop-color="#3C59CB" stop-opacity="1"/></linearGradient><linearGradient x1="0.5" y1="0" x2="0.5" y2="1" id="master_svg1_2_24420"><stop offset="0%" stop-color="#A1E5FF" stop-opacity="1"/><stop offset="100%" stop-color="#E7FFDF" stop-opacity="1"/></linearGradient><linearGradient x1="0.5" y1="0" x2="0.5" y2="1" id="master_svg2_2_23866"><stop offset="0%" stop-color="#7185D5" stop-opacity="1"/><stop offset="100%" stop-color="#7185D5" stop-opacity="0.20000000298023224"/></linearGradient><linearGradient x1="783.5" y1="0" x2="783.5" y2="364" gradientUnits="userSpaceOnUse" id="master_svg3_29_0910"><stop offset="0%" stop-color="#99AAEE" stop-opacity="0.800000011920929"/><stop offset="100%" stop-color="#99AAEE" stop-opacity="0"/></linearGradient><linearGradient x1="1299.5" y1="9" x2="1299.5" y2="477" gradientUnits="userSpaceOnUse" id="master_svg4_29_1124"><stop offset="0%" stop-color="#99AAEE" stop-opacity="0.8999999761581421"/><stop offset="100%" stop-color="#99AAEE" stop-opacity="0"/></linearGradient></defs><path d="M1.5,464.5L1921.5,464.5L1921.5,0L1.5,0L1.5,464.5Z" fill="url(#master_svg0_2_23882)" fill-opacity="1"/><path d="M2482,467L3560,467L3298.64929,1L2482,1L2482,467Z" fill="#FFE477" fill-opacity="1" transform="matrix(-1,0,0,1,4964,0)"/><path d="M0,314L209.5,314L121.97903,158L0,158L0,314Z" fill="url(#master_svg1_2_24420)" fill-opacity="1" transform="matrix(1,0,0,-1,0,316)"/><path d="M2348,467L3128,467L2866.44312,1L2348,1L2348,467Z" fill="url(#master_svg2_2_23866)" fill-opacity="1" transform="matrix(-1,0,0,1,4696,0)"/><g><path d="M519.96001,104.72L509.32001,185.36Q509.32001,189.28,507.5,192.78Q505.68001000000004,196.28,502.60001,198.8Q499.52,201.32001,495.74001,202.72Q491.96001,204.12,487.75999,204.12L452.75999,204.12L509.32001,263.20001L450.24001,263.20001L396.480003,204.12L388.360001,263.20001L334.6,263.20001L353.360001,115.36L345.24,104.72L519.96001,104.72ZM404.599998,131.60001L399,177.23999L458.36,177.23999L463.68001000000004,131.60001L404.599998,131.60001ZM661.3599899999999,145.03999Q669.4799800000001,145.03999,673.53998,151.62Q677.59998,158.2,677.59998,166.32001L664.1599699999999,263.20001L543.2,263.20001Q535.07999,263.20001,531.01999,257.88Q526.9599900000001,252.56,526.9599900000001,244.44L540.39999,145.03999L661.3599899999999,145.03999ZM591.3599899999999,171.92L580.72,236.32001L612.91998,236.32001L623.8399999999999,171.92L591.3599899999999,171.92ZM753.20001,145.03999L740.88,229.04001L774.48001,225.67999L785.39999,152.88L777.28,145.03999L839.16003,145.03999L822.91998,263.20001L769.1600000000001,263.20001L770.8399999999999,252.56L683.20001,263.20001L699.44,152.88L691.32001,145.03999L753.20001,145.03999ZM1000.71997,145.03999L984.47998,263.20001L930.71997,263.20001L944.15997,171.92L911.96002,171.92L898.52002,263.20001L844.76001,263.20001L861,152.88L852.88,145.03999L1000.71997,145.03999ZM1113.83997,88.479996L1167.59998,88.479996L1143.52002,263.20001L1022.56,263.20001Q1014.44,263.20001,1010.38,257.88Q1006.32001,252.56,1006.32001,244.44L1019.76001,145.03999L1105.71997,145.03999L1113.83997,88.479996ZM1069.32001,171.92L1058.96002,236.32001L1093.12,236.32001L1103.20001,171.92L1069.32001,171.92Z" fill="url(#master_svg3_29_0910)" fill-opacity="1"/></g><g><path d="M1321.82,347.39999L1253.419998,347.39999L1276.099998,186.12L1248.019997,190.07999L1253.419998,152.63998L1350.98,138.95999L1321.82,347.39999Z" fill="url(#master_svg4_29_1124)" fill-opacity="1"/></g><g><path d="M394.37999,262.08000000000004L382.67999,345.8L288.559998,345.8L300.259995,262.08000000000004L394.37999,262.08000000000004ZM346.02,323.70001L351.48,284.17999L336.92,284.17999L331.46,323.70001L346.02,323.70001ZM386.84000000000003,368.15999999999997L404.78,239.72L303.379997,239.72L307.019997,215.020004L452.87999,215.020004L430.25999,375.17999Q429.21999,382.72,423.5,387.53Q417.78,392.34,410.23999000000003,392.34L363.7,392.34L386.84000000000003,368.15999999999997ZM294.79999499999997,249.60001L274.779999,392.34L230.3199997,392.34L250.339998,249.60001L294.79999499999997,249.60001ZM297.659996,210.08000199999998L297.919998,244.66L253.459999,244.66L253.199999,210.08000199999998L297.659996,210.08000199999998ZM665.56,323.70001L656.71997,387.39999L470.03999,387.39999L478.88,323.70001L665.56,323.70001ZM516.32001,265.98001L510.07999,259.22L636.44,259.22L681.67999,315.38L632.27997,315.38L623.70001,304.46001L621.88,318.24001L524.12,318.24001L526.20001,302.89999L515.01999,315.38L465.62,315.38L516.32001,265.98001ZM642.1599699999999,216.58000199999998L695.9799800000001,216.58000199999998L693.12,238.16L667.89999,238.16L675.9599900000001,254.54001L636.44,254.54001L629.1599699999999,239.98001L621.62,254.01999999999998L577.1600000000001,254.01999999999998L599.51999,213.46000700000002L593.79999,205.66000400000001L648.1399799999999,205.66000400000001L642.1599699999999,216.58000199999998ZM538.67999,216.060013L587.29999,216.060013L584.44,237.64L564.1600000000001,237.64L572.22,254.01999999999998L532.70001,254.01999999999998L525.67999,239.72L517.88,254.01999999999998L473.41999999999996,254.01999999999998L495.78,213.46000700000002L490.06,205.66000400000001L544.39999,205.66000400000001L538.67999,216.060013ZM606.01999,367.12L609.1399799999999,343.98001L530.09998,343.98001L526.9799800000001,367.12L606.01999,367.12ZM532.44,296.14000999999996L617.4599900000001,296.14000999999996L608.09998,283.65999999999997L543.62,283.65999999999997L532.44,296.14000999999996ZM922.44,358.02L888.64001,358.02L882.40002,307.32001L870.44,391.82001L829.62,391.82001L841.06,310.96001L817.39996,358.02L779.44,358.02L840.27997,235.56001L807.52002,235.56001L811.15997,209.820007L941.15997,209.820007L937.52002,235.56001L878.76001,235.56001L864.97998,262.86001999999996L910.21997,262.86001999999996L922.44,358.02ZM732.12,277.15999999999997L738.35999,233.48001L721.9799800000001,233.48001L725.3599899999999,209.820007L800.5,209.820007L797.12,233.48001L779.17999,233.48001L772.94,277.15999999999997L788.79999,277.15999999999997L785.15997,303.42001L769.29999,303.42001L762.53998,351.26000999999997L779.44,347.88L775.79999,373.10001L699.10001,387.14001L702.73999,362.44L720.41998,359.06L728.22,303.42001L711.57999,303.42001L715.22,277.15999999999997L732.12,277.15999999999997ZM1160.85999,279.24001L1149.93994,355.41999999999996Q1148.89996,362.96001,1143.04999,368.03Q1137.19995,373.10001,1129.9199800000001,373.10001L1078.43994,373.10001L1101.57996,348.39999L1107.81995,303.94L1073.23999,303.94L1060.7599500000001,392.34L1011.35999,392.34L1023.83997,303.94L949.73999,303.94L953.38,279.24001L1160.85999,279.24001ZM997.31995,247L957.79999,247L961.17999,222.300003L1000.69995,222.300003L1001.73999,215.020004L993.41998,205.139999L1047.7599500000001,205.139999L1045.4199800000001,222.300003L1084.67999,222.300003L1085.71997,215.020004L1077.39996,205.139999L1131.73999,205.139999L1129.39996,222.300003L1168.6599700000002,222.300003L1165.27997,247L1125.7599500000001,247L1122.38,271.96001L1077.9199800000001,271.96001L1081.29999,247L1041.77997,247L1038.39996,271.96001L993.93994,271.96001L997.31995,247Z" fill="#FFFFFF" fill-opacity="1"/></g></svg>