<svg xmlns="http://www.w3.org/2000/svg" xmlns:xlink="http://www.w3.org/1999/xlink" fill="none" version="1.1" width="2482" height="477" viewBox="0 0 2482 477"><defs><linearGradient x1="0.5" y1="0" x2="0.5" y2="1" id="master_svg0_2_23882"><stop offset="0%" stop-color="#3C59CB" stop-opacity="0.10000000149011612"/><stop offset="100%" stop-color="#3C59CB" stop-opacity="1"/></linearGradient><linearGradient x1="0.5" y1="0" x2="0.5" y2="1" id="master_svg1_2_24420"><stop offset="0%" stop-color="#A1E5FF" stop-opacity="1"/><stop offset="100%" stop-color="#E7FFDF" stop-opacity="1"/></linearGradient><linearGradient x1="0.5" y1="0" x2="0.5" y2="1" id="master_svg2_2_23866"><stop offset="0%" stop-color="#7185D5" stop-opacity="1"/><stop offset="100%" stop-color="#7185D5" stop-opacity="0.20000000298023224"/></linearGradient><linearGradient x1="783.5" y1="0" x2="783.5" y2="364" gradientUnits="userSpaceOnUse" id="master_svg3_29_0910"><stop offset="0%" stop-color="#99AAEE" stop-opacity="0.800000011920929"/><stop offset="100%" stop-color="#99AAEE" stop-opacity="0"/></linearGradient><linearGradient x1="1299.5" y1="9" x2="1299.5" y2="477" gradientUnits="userSpaceOnUse" id="master_svg4_29_1124"><stop offset="0%" stop-color="#99AAEE" stop-opacity="0.8999999761581421"/><stop offset="100%" stop-color="#99AAEE" stop-opacity="0"/></linearGradient></defs><path d="M1.5,464.5L1921.5,464.5L1921.5,0L1.5,0L1.5,464.5Z" fill="url(#master_svg0_2_23882)" fill-opacity="1"/><path d="M2482,467L3560,467L3298.64929,1L2482,1L2482,467Z" fill="#FFE477" fill-opacity="1" transform="matrix(-1,0,0,1,4964,0)"/><path d="M0,314L209.5,314L121.97903,158L0,158L0,314Z" fill="url(#master_svg1_2_24420)" fill-opacity="1" transform="matrix(1,0,0,-1,0,316)"/><path d="M2348,467L3128,467L2866.44312,1L2348,1L2348,467Z" fill="url(#master_svg2_2_23866)" fill-opacity="1" transform="matrix(-1,0,0,1,4696,0)"/><g><path d="M519.96001,104.72L509.32001,185.36Q509.32001,189.28,507.5,192.78Q505.68001000000004,196.28,502.60001,198.8Q499.52,201.32001,495.74001,202.72Q491.96001,204.12,487.75999,204.12L452.75999,204.12L509.32001,263.20001L450.24001,263.20001L396.480003,204.12L388.360001,263.20001L334.6,263.20001L353.360001,115.36L345.24,104.72L519.96001,104.72ZM404.599998,131.60001L399,177.23999L458.36,177.23999L463.68001000000004,131.60001L404.599998,131.60001ZM661.3599899999999,145.03999Q669.4799800000001,145.03999,673.53998,151.62Q677.59998,158.2,677.59998,166.32001L664.1599699999999,263.20001L543.2,263.20001Q535.07999,263.20001,531.01999,257.88Q526.9599900000001,252.56,526.9599900000001,244.44L540.39999,145.03999L661.3599899999999,145.03999ZM591.3599899999999,171.92L580.72,236.32001L612.91998,236.32001L623.8399999999999,171.92L591.3599899999999,171.92ZM753.20001,145.03999L740.88,229.04001L774.48001,225.67999L785.39999,152.88L777.28,145.03999L839.16003,145.03999L822.91998,263.20001L769.1600000000001,263.20001L770.8399999999999,252.56L683.20001,263.20001L699.44,152.88L691.32001,145.03999L753.20001,145.03999ZM1000.71997,145.03999L984.47998,263.20001L930.71997,263.20001L944.15997,171.92L911.96002,171.92L898.52002,263.20001L844.76001,263.20001L861,152.88L852.88,145.03999L1000.71997,145.03999ZM1113.83997,88.479996L1167.59998,88.479996L1143.52002,263.20001L1022.56,263.20001Q1014.44,263.20001,1010.38,257.88Q1006.32001,252.56,1006.32001,244.44L1019.76001,145.03999L1105.71997,145.03999L1113.83997,88.479996ZM1069.32001,171.92L1058.96002,236.32001L1093.12,236.32001L1103.20001,171.92L1069.32001,171.92Z" fill="url(#master_svg3_29_0910)" fill-opacity="1"/></g><g><path d="M226.720001,197.66000400000001L227.5,191.940002L221,184.66000400000001L267.02,184.66000400000001L265.2,197.66000400000001L299,197.66000400000001L295.87999,219.76001L262.07999,219.76001L260.78,229.12000999999998L307.31998999999996,229.12000999999998L304.98,192.980011L297.7,184.400009L340.86,184.400009L343.45999,229.12000999999998L388.43998999999997,229.12000999999998L385.06,253.3L345.01999,253.3L347.09999,288.14L383.75999,262.92001L378.81998999999996,297.5L349.17999,318.3L350.73999000000003,344.3L368.15999,344.3L379.34000000000003,334.41999999999996L374.14,371.07999L317.2,371.07999L315.12,341.96001L292.23999000000003,358.08000000000004L297.17999,322.46001L313.03999,311.54001L309.14,253.3L173.68,253.3L177.059999,229.12000999999998L222.04000100000002,229.12000999999998L223.33999599999999,219.76001L185.119999,219.76001L188.239998,197.66000400000001L226.720001,197.66000400000001ZM221.779999,269.15999999999997L223.079994,259.28L265.46,259.28L264.15999999999997,269.15999999999997L301.59999,269.15999999999997L298.22,292.3L230.61999500000002,292.3L223.599998,304.26000999999997L226.720001,304.26000999999997L221.259995,342.74001L241.799995,338.58000000000004L238.41999800000002,363.53999L177.57999999999998,371.34L181.48,344.56L161.46,344.56L192.139999,292.3L172.9,292.3L176.279999,269.15999999999997L221.779999,269.15999999999997ZM268.06,301.92001L271.17999,311.02L295.09999,298.54001L290.94,328.17999L279.75999,334.15999999999997L293.28,371.34L256.1,371.34L230.879997,301.92001L268.06,301.92001ZM389.73999000000003,217.42000000000002L352.81998999999996,217.42000000000002L349.7,190.639999L387.13998000000004,190.639999L389.73999000000003,217.42000000000002ZM448.5,371.34L502.84,297.76000999999997L473.72,297.76000999999997L477.35999,273.06L511.94,273.06L517.39999,233.54001L487.76001,233.54001L491.13998,208.840012L520.78,208.840012L522.8599899999999,194.020004L514.53998,184.139999L573.82001,184.139999L570.17999,208.840012L629.4599900000001,208.840012L620.62,273.06L630.5,273.06L626.8599899999999,297.76000999999997L562.38,297.76000999999997L616.4599900000001,371.34L562.12,371.34L532.4799800000001,331.3L502.84,371.34L448.5,371.34ZM399.09999,371.34L426.91998,278L471.38,278L443.56,371.34L399.09999,371.34ZM428.47998,268.12L424.06,194.020004L468.51999,194.020004L472.94,268.12L428.47998,268.12ZM566.79999,233.54001L561.3399999999999,273.06L581.09998,273.06L586.56,233.54001L566.79999,233.54001ZM867.88,189.08000199999998L864.5,213.78L844.73999,213.78L837.19995,268.12L861.89996,268.12L858.26001,292.82001L833.56,292.82001L822.64001,371.34L773.23999,371.34L784.15997,292.82001L712.65997,292.82001L689.26001,371.34L639.8599899999999,371.34L663.25998,292.82001L640.89999,292.82001L644.53998,268.12L670.53998,268.12L686.65997,213.78L657.01999,213.78L660.39999,189.08000199999998L867.88,189.08000199999998ZM719.94,268.12L787.79999,268.12L795.33997,213.78L736.06,213.78L719.94,268.12ZM908.17999,214.56001L912.59998,184.139999L946.13995,184.139999L941.71997,214.56001L952.12,214.56001L956.27997,184.400009L989.81995,184.400009L985.65997,214.56001L993.45996,214.56001L990.07996,239.26001L982.01996,239.26001L973.69995,300.10001L949.51996,329.48001L971.09998,371.07999L935.21997,371.07999L927.15997,356.78L915.45996,371.07999L877.75995,371.07999L911.56,329.74001L895.95996,301.92001L904.79999,239.26001L896.47998,239.26001L899.85999,214.56001L908.17999,214.56001ZM1102.13995,277.74001L1089.6599700000002,366.92001L977.07996,366.92001L989.56,277.74001L1102.13995,277.74001ZM1104.73999,208.58000199999998L1108.63995,272.8L1070.67993,272.8L1070.1599700000002,265L986.17999,271.76000999999997L989.81995,246.02L1022.31995,191.16000400000001L1016.33997,184.139999L1068.33997,184.139999L1033.5,243.16L1068.85999,240.82001L1067.03998,208.58000199999998L1104.73999,208.58000199999998ZM1056.38,342.74001L1062.09998,301.92001L1023.35999,301.92001L1017.63995,342.74001L1056.38,342.74001ZM941.19995,293.34000000000003L948.73999,239.26001L938.33997,239.26001L930.79999,293.34000000000003L934.69995,301.14L941.19995,293.34000000000003Z" fill="#FFFFFF" fill-opacity="1"/></g><g><path d="M1321.82,347.39999L1253.419998,347.39999L1276.099998,186.12L1248.019997,190.07999L1253.419998,152.63998L1350.98,138.95999L1321.82,347.39999Z" fill="url(#master_svg4_29_1124)" fill-opacity="1"/></g></svg>